%TF.GenerationSoftware,KiCad,Pcbnew,8.0.6-8.0.6-0~ubuntu24.04.1*%
%TF.CreationDate,2025-04-08T22:12:19-04:00*%
%TF.ProjectId,super-mini-mesh-kicad,73757065-722d-46d6-996e-692d6d657368,rev?*%
%TF.SameCoordinates,Original*%
%TF.FileFunction,Legend,Top*%
%TF.FilePolarity,Positive*%
%FSLAX46Y46*%
G04 Gerber Fmt 4.6, Leading zero omitted, Abs format (unit mm)*
G04 Created by KiCad (PCBNEW 8.0.6-8.0.6-0~ubuntu24.04.1) date 2025-04-08 22:12:19*
%MOMM*%
%LPD*%
G01*
G04 APERTURE LIST*
%ADD10C,0.150000*%
%ADD11C,0.120000*%
%ADD12C,0.127000*%
G04 APERTURE END LIST*
D10*
X120589160Y-37284104D02*
X121065350Y-37284104D01*
X120493922Y-37569819D02*
X120827255Y-36569819D01*
X120827255Y-36569819D02*
X121160588Y-37569819D01*
X121493922Y-37569819D02*
X121493922Y-36569819D01*
X121493922Y-36569819D02*
X122065350Y-37569819D01*
X122065350Y-37569819D02*
X122065350Y-36569819D01*
X122398684Y-36569819D02*
X122970112Y-36569819D01*
X122684398Y-37569819D02*
X122684398Y-36569819D01*
X129822200Y-14210839D02*
X129869819Y-14067982D01*
X129869819Y-14067982D02*
X129869819Y-13829887D01*
X129869819Y-13829887D02*
X129822200Y-13734649D01*
X129822200Y-13734649D02*
X129774580Y-13687030D01*
X129774580Y-13687030D02*
X129679342Y-13639411D01*
X129679342Y-13639411D02*
X129584104Y-13639411D01*
X129584104Y-13639411D02*
X129488866Y-13687030D01*
X129488866Y-13687030D02*
X129441247Y-13734649D01*
X129441247Y-13734649D02*
X129393628Y-13829887D01*
X129393628Y-13829887D02*
X129346009Y-14020363D01*
X129346009Y-14020363D02*
X129298390Y-14115601D01*
X129298390Y-14115601D02*
X129250771Y-14163220D01*
X129250771Y-14163220D02*
X129155533Y-14210839D01*
X129155533Y-14210839D02*
X129060295Y-14210839D01*
X129060295Y-14210839D02*
X128965057Y-14163220D01*
X128965057Y-14163220D02*
X128917438Y-14115601D01*
X128917438Y-14115601D02*
X128869819Y-14020363D01*
X128869819Y-14020363D02*
X128869819Y-13782268D01*
X128869819Y-13782268D02*
X128917438Y-13639411D01*
X128869819Y-13306077D02*
X129869819Y-13067982D01*
X129869819Y-13067982D02*
X129155533Y-12877506D01*
X129155533Y-12877506D02*
X129869819Y-12687030D01*
X129869819Y-12687030D02*
X128869819Y-12448935D01*
X129869819Y-11544173D02*
X129869819Y-12115601D01*
X129869819Y-11829887D02*
X128869819Y-11829887D01*
X128869819Y-11829887D02*
X129012676Y-11925125D01*
X129012676Y-11925125D02*
X129107914Y-12020363D01*
X129107914Y-12020363D02*
X129155533Y-12115601D01*
X127369819Y-14163220D02*
X126369819Y-14163220D01*
X126369819Y-14163220D02*
X127084104Y-13829887D01*
X127084104Y-13829887D02*
X126369819Y-13496554D01*
X126369819Y-13496554D02*
X127369819Y-13496554D01*
X127369819Y-13020363D02*
X126369819Y-13020363D01*
X127322200Y-12591792D02*
X127369819Y-12448935D01*
X127369819Y-12448935D02*
X127369819Y-12210840D01*
X127369819Y-12210840D02*
X127322200Y-12115602D01*
X127322200Y-12115602D02*
X127274580Y-12067983D01*
X127274580Y-12067983D02*
X127179342Y-12020364D01*
X127179342Y-12020364D02*
X127084104Y-12020364D01*
X127084104Y-12020364D02*
X126988866Y-12067983D01*
X126988866Y-12067983D02*
X126941247Y-12115602D01*
X126941247Y-12115602D02*
X126893628Y-12210840D01*
X126893628Y-12210840D02*
X126846009Y-12401316D01*
X126846009Y-12401316D02*
X126798390Y-12496554D01*
X126798390Y-12496554D02*
X126750771Y-12544173D01*
X126750771Y-12544173D02*
X126655533Y-12591792D01*
X126655533Y-12591792D02*
X126560295Y-12591792D01*
X126560295Y-12591792D02*
X126465057Y-12544173D01*
X126465057Y-12544173D02*
X126417438Y-12496554D01*
X126417438Y-12496554D02*
X126369819Y-12401316D01*
X126369819Y-12401316D02*
X126369819Y-12163221D01*
X126369819Y-12163221D02*
X126417438Y-12020364D01*
X126369819Y-11401316D02*
X126369819Y-11210840D01*
X126369819Y-11210840D02*
X126417438Y-11115602D01*
X126417438Y-11115602D02*
X126512676Y-11020364D01*
X126512676Y-11020364D02*
X126703152Y-10972745D01*
X126703152Y-10972745D02*
X127036485Y-10972745D01*
X127036485Y-10972745D02*
X127226961Y-11020364D01*
X127226961Y-11020364D02*
X127322200Y-11115602D01*
X127322200Y-11115602D02*
X127369819Y-11210840D01*
X127369819Y-11210840D02*
X127369819Y-11401316D01*
X127369819Y-11401316D02*
X127322200Y-11496554D01*
X127322200Y-11496554D02*
X127226961Y-11591792D01*
X127226961Y-11591792D02*
X127036485Y-11639411D01*
X127036485Y-11639411D02*
X126703152Y-11639411D01*
X126703152Y-11639411D02*
X126512676Y-11591792D01*
X126512676Y-11591792D02*
X126417438Y-11496554D01*
X126417438Y-11496554D02*
X126369819Y-11401316D01*
X124669819Y-14163220D02*
X123669819Y-14163220D01*
X123669819Y-14163220D02*
X124384104Y-13829887D01*
X124384104Y-13829887D02*
X123669819Y-13496554D01*
X123669819Y-13496554D02*
X124669819Y-13496554D01*
X123669819Y-12829887D02*
X123669819Y-12639411D01*
X123669819Y-12639411D02*
X123717438Y-12544173D01*
X123717438Y-12544173D02*
X123812676Y-12448935D01*
X123812676Y-12448935D02*
X124003152Y-12401316D01*
X124003152Y-12401316D02*
X124336485Y-12401316D01*
X124336485Y-12401316D02*
X124526961Y-12448935D01*
X124526961Y-12448935D02*
X124622200Y-12544173D01*
X124622200Y-12544173D02*
X124669819Y-12639411D01*
X124669819Y-12639411D02*
X124669819Y-12829887D01*
X124669819Y-12829887D02*
X124622200Y-12925125D01*
X124622200Y-12925125D02*
X124526961Y-13020363D01*
X124526961Y-13020363D02*
X124336485Y-13067982D01*
X124336485Y-13067982D02*
X124003152Y-13067982D01*
X124003152Y-13067982D02*
X123812676Y-13020363D01*
X123812676Y-13020363D02*
X123717438Y-12925125D01*
X123717438Y-12925125D02*
X123669819Y-12829887D01*
X124622200Y-12020363D02*
X124669819Y-11877506D01*
X124669819Y-11877506D02*
X124669819Y-11639411D01*
X124669819Y-11639411D02*
X124622200Y-11544173D01*
X124622200Y-11544173D02*
X124574580Y-11496554D01*
X124574580Y-11496554D02*
X124479342Y-11448935D01*
X124479342Y-11448935D02*
X124384104Y-11448935D01*
X124384104Y-11448935D02*
X124288866Y-11496554D01*
X124288866Y-11496554D02*
X124241247Y-11544173D01*
X124241247Y-11544173D02*
X124193628Y-11639411D01*
X124193628Y-11639411D02*
X124146009Y-11829887D01*
X124146009Y-11829887D02*
X124098390Y-11925125D01*
X124098390Y-11925125D02*
X124050771Y-11972744D01*
X124050771Y-11972744D02*
X123955533Y-12020363D01*
X123955533Y-12020363D02*
X123860295Y-12020363D01*
X123860295Y-12020363D02*
X123765057Y-11972744D01*
X123765057Y-11972744D02*
X123717438Y-11925125D01*
X123717438Y-11925125D02*
X123669819Y-11829887D01*
X123669819Y-11829887D02*
X123669819Y-11591792D01*
X123669819Y-11591792D02*
X123717438Y-11448935D01*
X124669819Y-11020363D02*
X123669819Y-11020363D01*
X122322200Y-14210839D02*
X122369819Y-14067982D01*
X122369819Y-14067982D02*
X122369819Y-13829887D01*
X122369819Y-13829887D02*
X122322200Y-13734649D01*
X122322200Y-13734649D02*
X122274580Y-13687030D01*
X122274580Y-13687030D02*
X122179342Y-13639411D01*
X122179342Y-13639411D02*
X122084104Y-13639411D01*
X122084104Y-13639411D02*
X121988866Y-13687030D01*
X121988866Y-13687030D02*
X121941247Y-13734649D01*
X121941247Y-13734649D02*
X121893628Y-13829887D01*
X121893628Y-13829887D02*
X121846009Y-14020363D01*
X121846009Y-14020363D02*
X121798390Y-14115601D01*
X121798390Y-14115601D02*
X121750771Y-14163220D01*
X121750771Y-14163220D02*
X121655533Y-14210839D01*
X121655533Y-14210839D02*
X121560295Y-14210839D01*
X121560295Y-14210839D02*
X121465057Y-14163220D01*
X121465057Y-14163220D02*
X121417438Y-14115601D01*
X121417438Y-14115601D02*
X121369819Y-14020363D01*
X121369819Y-14020363D02*
X121369819Y-13782268D01*
X121369819Y-13782268D02*
X121417438Y-13639411D01*
X122274580Y-12639411D02*
X122322200Y-12687030D01*
X122322200Y-12687030D02*
X122369819Y-12829887D01*
X122369819Y-12829887D02*
X122369819Y-12925125D01*
X122369819Y-12925125D02*
X122322200Y-13067982D01*
X122322200Y-13067982D02*
X122226961Y-13163220D01*
X122226961Y-13163220D02*
X122131723Y-13210839D01*
X122131723Y-13210839D02*
X121941247Y-13258458D01*
X121941247Y-13258458D02*
X121798390Y-13258458D01*
X121798390Y-13258458D02*
X121607914Y-13210839D01*
X121607914Y-13210839D02*
X121512676Y-13163220D01*
X121512676Y-13163220D02*
X121417438Y-13067982D01*
X121417438Y-13067982D02*
X121369819Y-12925125D01*
X121369819Y-12925125D02*
X121369819Y-12829887D01*
X121369819Y-12829887D02*
X121417438Y-12687030D01*
X121417438Y-12687030D02*
X121465057Y-12639411D01*
X122369819Y-12210839D02*
X121369819Y-12210839D01*
X122369819Y-11639411D02*
X121798390Y-12067982D01*
X121369819Y-11639411D02*
X121941247Y-12210839D01*
X119769819Y-13691792D02*
X119293628Y-14025125D01*
X119769819Y-14263220D02*
X118769819Y-14263220D01*
X118769819Y-14263220D02*
X118769819Y-13882268D01*
X118769819Y-13882268D02*
X118817438Y-13787030D01*
X118817438Y-13787030D02*
X118865057Y-13739411D01*
X118865057Y-13739411D02*
X118960295Y-13691792D01*
X118960295Y-13691792D02*
X119103152Y-13691792D01*
X119103152Y-13691792D02*
X119198390Y-13739411D01*
X119198390Y-13739411D02*
X119246009Y-13787030D01*
X119246009Y-13787030D02*
X119293628Y-13882268D01*
X119293628Y-13882268D02*
X119293628Y-14263220D01*
X119722200Y-13310839D02*
X119769819Y-13167982D01*
X119769819Y-13167982D02*
X119769819Y-12929887D01*
X119769819Y-12929887D02*
X119722200Y-12834649D01*
X119722200Y-12834649D02*
X119674580Y-12787030D01*
X119674580Y-12787030D02*
X119579342Y-12739411D01*
X119579342Y-12739411D02*
X119484104Y-12739411D01*
X119484104Y-12739411D02*
X119388866Y-12787030D01*
X119388866Y-12787030D02*
X119341247Y-12834649D01*
X119341247Y-12834649D02*
X119293628Y-12929887D01*
X119293628Y-12929887D02*
X119246009Y-13120363D01*
X119246009Y-13120363D02*
X119198390Y-13215601D01*
X119198390Y-13215601D02*
X119150771Y-13263220D01*
X119150771Y-13263220D02*
X119055533Y-13310839D01*
X119055533Y-13310839D02*
X118960295Y-13310839D01*
X118960295Y-13310839D02*
X118865057Y-13263220D01*
X118865057Y-13263220D02*
X118817438Y-13215601D01*
X118817438Y-13215601D02*
X118769819Y-13120363D01*
X118769819Y-13120363D02*
X118769819Y-12882268D01*
X118769819Y-12882268D02*
X118817438Y-12739411D01*
X118769819Y-12453696D02*
X118769819Y-11882268D01*
X119769819Y-12167982D02*
X118769819Y-12167982D01*
X117169819Y-14263220D02*
X116169819Y-14263220D01*
X116169819Y-14263220D02*
X117169819Y-13691792D01*
X117169819Y-13691792D02*
X116169819Y-13691792D01*
X117122200Y-13263220D02*
X117169819Y-13120363D01*
X117169819Y-13120363D02*
X117169819Y-12882268D01*
X117169819Y-12882268D02*
X117122200Y-12787030D01*
X117122200Y-12787030D02*
X117074580Y-12739411D01*
X117074580Y-12739411D02*
X116979342Y-12691792D01*
X116979342Y-12691792D02*
X116884104Y-12691792D01*
X116884104Y-12691792D02*
X116788866Y-12739411D01*
X116788866Y-12739411D02*
X116741247Y-12787030D01*
X116741247Y-12787030D02*
X116693628Y-12882268D01*
X116693628Y-12882268D02*
X116646009Y-13072744D01*
X116646009Y-13072744D02*
X116598390Y-13167982D01*
X116598390Y-13167982D02*
X116550771Y-13215601D01*
X116550771Y-13215601D02*
X116455533Y-13263220D01*
X116455533Y-13263220D02*
X116360295Y-13263220D01*
X116360295Y-13263220D02*
X116265057Y-13215601D01*
X116265057Y-13215601D02*
X116217438Y-13167982D01*
X116217438Y-13167982D02*
X116169819Y-13072744D01*
X116169819Y-13072744D02*
X116169819Y-12834649D01*
X116169819Y-12834649D02*
X116217438Y-12691792D01*
X117122200Y-12310839D02*
X117169819Y-12167982D01*
X117169819Y-12167982D02*
X117169819Y-11929887D01*
X117169819Y-11929887D02*
X117122200Y-11834649D01*
X117122200Y-11834649D02*
X117074580Y-11787030D01*
X117074580Y-11787030D02*
X116979342Y-11739411D01*
X116979342Y-11739411D02*
X116884104Y-11739411D01*
X116884104Y-11739411D02*
X116788866Y-11787030D01*
X116788866Y-11787030D02*
X116741247Y-11834649D01*
X116741247Y-11834649D02*
X116693628Y-11929887D01*
X116693628Y-11929887D02*
X116646009Y-12120363D01*
X116646009Y-12120363D02*
X116598390Y-12215601D01*
X116598390Y-12215601D02*
X116550771Y-12263220D01*
X116550771Y-12263220D02*
X116455533Y-12310839D01*
X116455533Y-12310839D02*
X116360295Y-12310839D01*
X116360295Y-12310839D02*
X116265057Y-12263220D01*
X116265057Y-12263220D02*
X116217438Y-12215601D01*
X116217438Y-12215601D02*
X116169819Y-12120363D01*
X116169819Y-12120363D02*
X116169819Y-11882268D01*
X116169819Y-11882268D02*
X116217438Y-11739411D01*
X116169819Y-36458458D02*
X116169819Y-35839411D01*
X116169819Y-35839411D02*
X116550771Y-36172744D01*
X116550771Y-36172744D02*
X116550771Y-36029887D01*
X116550771Y-36029887D02*
X116598390Y-35934649D01*
X116598390Y-35934649D02*
X116646009Y-35887030D01*
X116646009Y-35887030D02*
X116741247Y-35839411D01*
X116741247Y-35839411D02*
X116979342Y-35839411D01*
X116979342Y-35839411D02*
X117074580Y-35887030D01*
X117074580Y-35887030D02*
X117122200Y-35934649D01*
X117122200Y-35934649D02*
X117169819Y-36029887D01*
X117169819Y-36029887D02*
X117169819Y-36315601D01*
X117169819Y-36315601D02*
X117122200Y-36410839D01*
X117122200Y-36410839D02*
X117074580Y-36458458D01*
X116169819Y-35553696D02*
X117169819Y-35220363D01*
X117169819Y-35220363D02*
X116169819Y-34887030D01*
X116169819Y-34648934D02*
X116169819Y-34029887D01*
X116169819Y-34029887D02*
X116550771Y-34363220D01*
X116550771Y-34363220D02*
X116550771Y-34220363D01*
X116550771Y-34220363D02*
X116598390Y-34125125D01*
X116598390Y-34125125D02*
X116646009Y-34077506D01*
X116646009Y-34077506D02*
X116741247Y-34029887D01*
X116741247Y-34029887D02*
X116979342Y-34029887D01*
X116979342Y-34029887D02*
X117074580Y-34077506D01*
X117074580Y-34077506D02*
X117122200Y-34125125D01*
X117122200Y-34125125D02*
X117169819Y-34220363D01*
X117169819Y-34220363D02*
X117169819Y-34506077D01*
X117169819Y-34506077D02*
X117122200Y-34601315D01*
X117122200Y-34601315D02*
X117074580Y-34648934D01*
X118817438Y-35839411D02*
X118769819Y-35934649D01*
X118769819Y-35934649D02*
X118769819Y-36077506D01*
X118769819Y-36077506D02*
X118817438Y-36220363D01*
X118817438Y-36220363D02*
X118912676Y-36315601D01*
X118912676Y-36315601D02*
X119007914Y-36363220D01*
X119007914Y-36363220D02*
X119198390Y-36410839D01*
X119198390Y-36410839D02*
X119341247Y-36410839D01*
X119341247Y-36410839D02*
X119531723Y-36363220D01*
X119531723Y-36363220D02*
X119626961Y-36315601D01*
X119626961Y-36315601D02*
X119722200Y-36220363D01*
X119722200Y-36220363D02*
X119769819Y-36077506D01*
X119769819Y-36077506D02*
X119769819Y-35982268D01*
X119769819Y-35982268D02*
X119722200Y-35839411D01*
X119722200Y-35839411D02*
X119674580Y-35791792D01*
X119674580Y-35791792D02*
X119341247Y-35791792D01*
X119341247Y-35791792D02*
X119341247Y-35982268D01*
X119769819Y-35363220D02*
X118769819Y-35363220D01*
X118769819Y-35363220D02*
X119769819Y-34791792D01*
X119769819Y-34791792D02*
X118769819Y-34791792D01*
X119769819Y-34315601D02*
X118769819Y-34315601D01*
X118769819Y-34315601D02*
X118769819Y-34077506D01*
X118769819Y-34077506D02*
X118817438Y-33934649D01*
X118817438Y-33934649D02*
X118912676Y-33839411D01*
X118912676Y-33839411D02*
X119007914Y-33791792D01*
X119007914Y-33791792D02*
X119198390Y-33744173D01*
X119198390Y-33744173D02*
X119341247Y-33744173D01*
X119341247Y-33744173D02*
X119531723Y-33791792D01*
X119531723Y-33791792D02*
X119626961Y-33839411D01*
X119626961Y-33839411D02*
X119722200Y-33934649D01*
X119722200Y-33934649D02*
X119769819Y-34077506D01*
X119769819Y-34077506D02*
X119769819Y-34315601D01*
X129869819Y-36663220D02*
X128869819Y-36663220D01*
X128869819Y-36663220D02*
X128869819Y-36425125D01*
X128869819Y-36425125D02*
X128917438Y-36282268D01*
X128917438Y-36282268D02*
X129012676Y-36187030D01*
X129012676Y-36187030D02*
X129107914Y-36139411D01*
X129107914Y-36139411D02*
X129298390Y-36091792D01*
X129298390Y-36091792D02*
X129441247Y-36091792D01*
X129441247Y-36091792D02*
X129631723Y-36139411D01*
X129631723Y-36139411D02*
X129726961Y-36187030D01*
X129726961Y-36187030D02*
X129822200Y-36282268D01*
X129822200Y-36282268D02*
X129869819Y-36425125D01*
X129869819Y-36425125D02*
X129869819Y-36663220D01*
X129869819Y-35663220D02*
X128869819Y-35663220D01*
X128869819Y-34996554D02*
X128869819Y-34806078D01*
X128869819Y-34806078D02*
X128917438Y-34710840D01*
X128917438Y-34710840D02*
X129012676Y-34615602D01*
X129012676Y-34615602D02*
X129203152Y-34567983D01*
X129203152Y-34567983D02*
X129536485Y-34567983D01*
X129536485Y-34567983D02*
X129726961Y-34615602D01*
X129726961Y-34615602D02*
X129822200Y-34710840D01*
X129822200Y-34710840D02*
X129869819Y-34806078D01*
X129869819Y-34806078D02*
X129869819Y-34996554D01*
X129869819Y-34996554D02*
X129822200Y-35091792D01*
X129822200Y-35091792D02*
X129726961Y-35187030D01*
X129726961Y-35187030D02*
X129536485Y-35234649D01*
X129536485Y-35234649D02*
X129203152Y-35234649D01*
X129203152Y-35234649D02*
X129012676Y-35187030D01*
X129012676Y-35187030D02*
X128917438Y-35091792D01*
X128917438Y-35091792D02*
X128869819Y-34996554D01*
X129869819Y-33615602D02*
X129869819Y-34187030D01*
X129869819Y-33901316D02*
X128869819Y-33901316D01*
X128869819Y-33901316D02*
X129012676Y-33996554D01*
X129012676Y-33996554D02*
X129107914Y-34091792D01*
X129107914Y-34091792D02*
X129155533Y-34187030D01*
X127046009Y-36629887D02*
X127093628Y-36487030D01*
X127093628Y-36487030D02*
X127141247Y-36439411D01*
X127141247Y-36439411D02*
X127236485Y-36391792D01*
X127236485Y-36391792D02*
X127379342Y-36391792D01*
X127379342Y-36391792D02*
X127474580Y-36439411D01*
X127474580Y-36439411D02*
X127522200Y-36487030D01*
X127522200Y-36487030D02*
X127569819Y-36582268D01*
X127569819Y-36582268D02*
X127569819Y-36963220D01*
X127569819Y-36963220D02*
X126569819Y-36963220D01*
X126569819Y-36963220D02*
X126569819Y-36629887D01*
X126569819Y-36629887D02*
X126617438Y-36534649D01*
X126617438Y-36534649D02*
X126665057Y-36487030D01*
X126665057Y-36487030D02*
X126760295Y-36439411D01*
X126760295Y-36439411D02*
X126855533Y-36439411D01*
X126855533Y-36439411D02*
X126950771Y-36487030D01*
X126950771Y-36487030D02*
X126998390Y-36534649D01*
X126998390Y-36534649D02*
X127046009Y-36629887D01*
X127046009Y-36629887D02*
X127046009Y-36963220D01*
X126569819Y-35963220D02*
X127379342Y-35963220D01*
X127379342Y-35963220D02*
X127474580Y-35915601D01*
X127474580Y-35915601D02*
X127522200Y-35867982D01*
X127522200Y-35867982D02*
X127569819Y-35772744D01*
X127569819Y-35772744D02*
X127569819Y-35582268D01*
X127569819Y-35582268D02*
X127522200Y-35487030D01*
X127522200Y-35487030D02*
X127474580Y-35439411D01*
X127474580Y-35439411D02*
X127379342Y-35391792D01*
X127379342Y-35391792D02*
X126569819Y-35391792D01*
X127522200Y-34963220D02*
X127569819Y-34820363D01*
X127569819Y-34820363D02*
X127569819Y-34582268D01*
X127569819Y-34582268D02*
X127522200Y-34487030D01*
X127522200Y-34487030D02*
X127474580Y-34439411D01*
X127474580Y-34439411D02*
X127379342Y-34391792D01*
X127379342Y-34391792D02*
X127284104Y-34391792D01*
X127284104Y-34391792D02*
X127188866Y-34439411D01*
X127188866Y-34439411D02*
X127141247Y-34487030D01*
X127141247Y-34487030D02*
X127093628Y-34582268D01*
X127093628Y-34582268D02*
X127046009Y-34772744D01*
X127046009Y-34772744D02*
X126998390Y-34867982D01*
X126998390Y-34867982D02*
X126950771Y-34915601D01*
X126950771Y-34915601D02*
X126855533Y-34963220D01*
X126855533Y-34963220D02*
X126760295Y-34963220D01*
X126760295Y-34963220D02*
X126665057Y-34915601D01*
X126665057Y-34915601D02*
X126617438Y-34867982D01*
X126617438Y-34867982D02*
X126569819Y-34772744D01*
X126569819Y-34772744D02*
X126569819Y-34534649D01*
X126569819Y-34534649D02*
X126617438Y-34391792D01*
X127093628Y-33772744D02*
X127569819Y-33772744D01*
X126569819Y-34106077D02*
X127093628Y-33772744D01*
X127093628Y-33772744D02*
X126569819Y-33439411D01*
X124117438Y-35739411D02*
X124069819Y-35834649D01*
X124069819Y-35834649D02*
X124069819Y-35977506D01*
X124069819Y-35977506D02*
X124117438Y-36120363D01*
X124117438Y-36120363D02*
X124212676Y-36215601D01*
X124212676Y-36215601D02*
X124307914Y-36263220D01*
X124307914Y-36263220D02*
X124498390Y-36310839D01*
X124498390Y-36310839D02*
X124641247Y-36310839D01*
X124641247Y-36310839D02*
X124831723Y-36263220D01*
X124831723Y-36263220D02*
X124926961Y-36215601D01*
X124926961Y-36215601D02*
X125022200Y-36120363D01*
X125022200Y-36120363D02*
X125069819Y-35977506D01*
X125069819Y-35977506D02*
X125069819Y-35882268D01*
X125069819Y-35882268D02*
X125022200Y-35739411D01*
X125022200Y-35739411D02*
X124974580Y-35691792D01*
X124974580Y-35691792D02*
X124641247Y-35691792D01*
X124641247Y-35691792D02*
X124641247Y-35882268D01*
X125069819Y-35263220D02*
X124069819Y-35263220D01*
X124069819Y-35263220D02*
X125069819Y-34691792D01*
X125069819Y-34691792D02*
X124069819Y-34691792D01*
X125069819Y-34215601D02*
X124069819Y-34215601D01*
X124069819Y-34215601D02*
X124069819Y-33977506D01*
X124069819Y-33977506D02*
X124117438Y-33834649D01*
X124117438Y-33834649D02*
X124212676Y-33739411D01*
X124212676Y-33739411D02*
X124307914Y-33691792D01*
X124307914Y-33691792D02*
X124498390Y-33644173D01*
X124498390Y-33644173D02*
X124641247Y-33644173D01*
X124641247Y-33644173D02*
X124831723Y-33691792D01*
X124831723Y-33691792D02*
X124926961Y-33739411D01*
X124926961Y-33739411D02*
X125022200Y-33834649D01*
X125022200Y-33834649D02*
X125069819Y-33977506D01*
X125069819Y-33977506D02*
X125069819Y-34215601D01*
X121666666Y-31484819D02*
X121666666Y-32199104D01*
X121666666Y-32199104D02*
X121619047Y-32341961D01*
X121619047Y-32341961D02*
X121523809Y-32437200D01*
X121523809Y-32437200D02*
X121380952Y-32484819D01*
X121380952Y-32484819D02*
X121285714Y-32484819D01*
X122047619Y-31484819D02*
X122666666Y-31484819D01*
X122666666Y-31484819D02*
X122333333Y-31865771D01*
X122333333Y-31865771D02*
X122476190Y-31865771D01*
X122476190Y-31865771D02*
X122571428Y-31913390D01*
X122571428Y-31913390D02*
X122619047Y-31961009D01*
X122619047Y-31961009D02*
X122666666Y-32056247D01*
X122666666Y-32056247D02*
X122666666Y-32294342D01*
X122666666Y-32294342D02*
X122619047Y-32389580D01*
X122619047Y-32389580D02*
X122571428Y-32437200D01*
X122571428Y-32437200D02*
X122476190Y-32484819D01*
X122476190Y-32484819D02*
X122190476Y-32484819D01*
X122190476Y-32484819D02*
X122095238Y-32437200D01*
X122095238Y-32437200D02*
X122047619Y-32389580D01*
X131724819Y-32073333D02*
X132439104Y-32073333D01*
X132439104Y-32073333D02*
X132581961Y-32120952D01*
X132581961Y-32120952D02*
X132677200Y-32216190D01*
X132677200Y-32216190D02*
X132724819Y-32359047D01*
X132724819Y-32359047D02*
X132724819Y-32454285D01*
X131820057Y-31644761D02*
X131772438Y-31597142D01*
X131772438Y-31597142D02*
X131724819Y-31501904D01*
X131724819Y-31501904D02*
X131724819Y-31263809D01*
X131724819Y-31263809D02*
X131772438Y-31168571D01*
X131772438Y-31168571D02*
X131820057Y-31120952D01*
X131820057Y-31120952D02*
X131915295Y-31073333D01*
X131915295Y-31073333D02*
X132010533Y-31073333D01*
X132010533Y-31073333D02*
X132153390Y-31120952D01*
X132153390Y-31120952D02*
X132724819Y-31692380D01*
X132724819Y-31692380D02*
X132724819Y-31073333D01*
X123156845Y-30254819D02*
X123156845Y-31064342D01*
X123156845Y-31064342D02*
X123204464Y-31159580D01*
X123204464Y-31159580D02*
X123252083Y-31207200D01*
X123252083Y-31207200D02*
X123347321Y-31254819D01*
X123347321Y-31254819D02*
X123537797Y-31254819D01*
X123537797Y-31254819D02*
X123633035Y-31207200D01*
X123633035Y-31207200D02*
X123680654Y-31159580D01*
X123680654Y-31159580D02*
X123728273Y-31064342D01*
X123728273Y-31064342D02*
X123728273Y-30254819D01*
X124728273Y-31254819D02*
X124156845Y-31254819D01*
X124442559Y-31254819D02*
X124442559Y-30254819D01*
X124442559Y-30254819D02*
X124347321Y-30397676D01*
X124347321Y-30397676D02*
X124252083Y-30492914D01*
X124252083Y-30492914D02*
X124156845Y-30540533D01*
X115088152Y-28704761D02*
X115754819Y-28514285D01*
X115754819Y-28514285D02*
X115278628Y-28323809D01*
X115278628Y-28323809D02*
X115754819Y-28133333D01*
X115754819Y-28133333D02*
X115088152Y-27942857D01*
X115754819Y-27561904D02*
X115088152Y-27561904D01*
X114754819Y-27561904D02*
X114802438Y-27609523D01*
X114802438Y-27609523D02*
X114850057Y-27561904D01*
X114850057Y-27561904D02*
X114802438Y-27514285D01*
X114802438Y-27514285D02*
X114754819Y-27561904D01*
X114754819Y-27561904D02*
X114850057Y-27561904D01*
X115754819Y-26942857D02*
X115707200Y-27038095D01*
X115707200Y-27038095D02*
X115659580Y-27085714D01*
X115659580Y-27085714D02*
X115564342Y-27133333D01*
X115564342Y-27133333D02*
X115278628Y-27133333D01*
X115278628Y-27133333D02*
X115183390Y-27085714D01*
X115183390Y-27085714D02*
X115135771Y-27038095D01*
X115135771Y-27038095D02*
X115088152Y-26942857D01*
X115088152Y-26942857D02*
X115088152Y-26800000D01*
X115088152Y-26800000D02*
X115135771Y-26704762D01*
X115135771Y-26704762D02*
X115183390Y-26657143D01*
X115183390Y-26657143D02*
X115278628Y-26609524D01*
X115278628Y-26609524D02*
X115564342Y-26609524D01*
X115564342Y-26609524D02*
X115659580Y-26657143D01*
X115659580Y-26657143D02*
X115707200Y-26704762D01*
X115707200Y-26704762D02*
X115754819Y-26800000D01*
X115754819Y-26800000D02*
X115754819Y-26942857D01*
X115373866Y-26180952D02*
X115373866Y-25419048D01*
X115707200Y-24990476D02*
X115754819Y-24895238D01*
X115754819Y-24895238D02*
X115754819Y-24704762D01*
X115754819Y-24704762D02*
X115707200Y-24609524D01*
X115707200Y-24609524D02*
X115611961Y-24561905D01*
X115611961Y-24561905D02*
X115564342Y-24561905D01*
X115564342Y-24561905D02*
X115469104Y-24609524D01*
X115469104Y-24609524D02*
X115421485Y-24704762D01*
X115421485Y-24704762D02*
X115421485Y-24847619D01*
X115421485Y-24847619D02*
X115373866Y-24942857D01*
X115373866Y-24942857D02*
X115278628Y-24990476D01*
X115278628Y-24990476D02*
X115231009Y-24990476D01*
X115231009Y-24990476D02*
X115135771Y-24942857D01*
X115135771Y-24942857D02*
X115088152Y-24847619D01*
X115088152Y-24847619D02*
X115088152Y-24704762D01*
X115088152Y-24704762D02*
X115135771Y-24609524D01*
X115754819Y-24228571D02*
X115088152Y-23704762D01*
X115088152Y-24228571D02*
X115754819Y-23704762D01*
X115754819Y-22800000D02*
X115754819Y-23371428D01*
X115754819Y-23085714D02*
X114754819Y-23085714D01*
X114754819Y-23085714D02*
X114897676Y-23180952D01*
X114897676Y-23180952D02*
X114992914Y-23276190D01*
X114992914Y-23276190D02*
X115040533Y-23371428D01*
X114850057Y-22419047D02*
X114802438Y-22371428D01*
X114802438Y-22371428D02*
X114754819Y-22276190D01*
X114754819Y-22276190D02*
X114754819Y-22038095D01*
X114754819Y-22038095D02*
X114802438Y-21942857D01*
X114802438Y-21942857D02*
X114850057Y-21895238D01*
X114850057Y-21895238D02*
X114945295Y-21847619D01*
X114945295Y-21847619D02*
X115040533Y-21847619D01*
X115040533Y-21847619D02*
X115183390Y-21895238D01*
X115183390Y-21895238D02*
X115754819Y-22466666D01*
X115754819Y-22466666D02*
X115754819Y-21847619D01*
X114754819Y-20990476D02*
X114754819Y-21180952D01*
X114754819Y-21180952D02*
X114802438Y-21276190D01*
X114802438Y-21276190D02*
X114850057Y-21323809D01*
X114850057Y-21323809D02*
X114992914Y-21419047D01*
X114992914Y-21419047D02*
X115183390Y-21466666D01*
X115183390Y-21466666D02*
X115564342Y-21466666D01*
X115564342Y-21466666D02*
X115659580Y-21419047D01*
X115659580Y-21419047D02*
X115707200Y-21371428D01*
X115707200Y-21371428D02*
X115754819Y-21276190D01*
X115754819Y-21276190D02*
X115754819Y-21085714D01*
X115754819Y-21085714D02*
X115707200Y-20990476D01*
X115707200Y-20990476D02*
X115659580Y-20942857D01*
X115659580Y-20942857D02*
X115564342Y-20895238D01*
X115564342Y-20895238D02*
X115326247Y-20895238D01*
X115326247Y-20895238D02*
X115231009Y-20942857D01*
X115231009Y-20942857D02*
X115183390Y-20990476D01*
X115183390Y-20990476D02*
X115135771Y-21085714D01*
X115135771Y-21085714D02*
X115135771Y-21276190D01*
X115135771Y-21276190D02*
X115183390Y-21371428D01*
X115183390Y-21371428D02*
X115231009Y-21419047D01*
X115231009Y-21419047D02*
X115326247Y-21466666D01*
X114850057Y-20514285D02*
X114802438Y-20466666D01*
X114802438Y-20466666D02*
X114754819Y-20371428D01*
X114754819Y-20371428D02*
X114754819Y-20133333D01*
X114754819Y-20133333D02*
X114802438Y-20038095D01*
X114802438Y-20038095D02*
X114850057Y-19990476D01*
X114850057Y-19990476D02*
X114945295Y-19942857D01*
X114945295Y-19942857D02*
X115040533Y-19942857D01*
X115040533Y-19942857D02*
X115183390Y-19990476D01*
X115183390Y-19990476D02*
X115754819Y-20561904D01*
X115754819Y-20561904D02*
X115754819Y-19942857D01*
X131724819Y-16833333D02*
X132439104Y-16833333D01*
X132439104Y-16833333D02*
X132581961Y-16880952D01*
X132581961Y-16880952D02*
X132677200Y-16976190D01*
X132677200Y-16976190D02*
X132724819Y-17119047D01*
X132724819Y-17119047D02*
X132724819Y-17214285D01*
X132724819Y-15833333D02*
X132724819Y-16404761D01*
X132724819Y-16119047D02*
X131724819Y-16119047D01*
X131724819Y-16119047D02*
X131867676Y-16214285D01*
X131867676Y-16214285D02*
X131962914Y-16309523D01*
X131962914Y-16309523D02*
X132010533Y-16404761D01*
D11*
%TO.C,J3*%
X120670000Y-36010000D02*
X120670000Y-36130000D01*
X120670000Y-36130000D02*
X123330000Y-36130000D01*
X122000000Y-33470000D02*
X123330000Y-33470000D01*
X123330000Y-33470000D02*
X123330000Y-34800000D01*
X123330000Y-36010000D02*
X123330000Y-36130000D01*
%TO.C,J2*%
X115470000Y-30410000D02*
X115470000Y-33070000D01*
X128230000Y-30410000D02*
X115470000Y-30410000D01*
X128230000Y-30410000D02*
X128230000Y-33070000D01*
X128230000Y-33070000D02*
X115470000Y-33070000D01*
X130830000Y-31740000D02*
X130830000Y-33070000D01*
X130830000Y-33070000D02*
X129500000Y-33070000D01*
%TO.C,U1*%
X117990000Y-18600000D02*
X129590000Y-18600000D01*
X117990000Y-29600000D02*
X117990000Y-18600000D01*
D12*
X129463000Y-18346000D02*
X129844000Y-18346000D01*
D11*
X129590000Y-18600000D02*
X129590000Y-29600000D01*
X129590000Y-29600000D02*
X117990000Y-29600000D01*
D12*
X129844000Y-18346000D02*
X129844000Y-18727000D01*
D11*
%TO.C,J1*%
X115470000Y-15170000D02*
X115470000Y-17830000D01*
X128230000Y-15170000D02*
X115470000Y-15170000D01*
X128230000Y-15170000D02*
X128230000Y-17830000D01*
X128230000Y-17830000D02*
X115470000Y-17830000D01*
X130830000Y-16500000D02*
X130830000Y-17830000D01*
X130830000Y-17830000D02*
X129500000Y-17830000D01*
%TD*%
M02*
