%TF.GenerationSoftware,KiCad,Pcbnew,8.0.6-8.0.6-0~ubuntu24.04.1*%
%TF.CreationDate,2025-04-10T23:09:08-04:00*%
%TF.ProjectId,super-mini-mesh-kicad,73757065-722d-46d6-996e-692d6d657368,rev?*%
%TF.SameCoordinates,Original*%
%TF.FileFunction,Soldermask,Top*%
%TF.FilePolarity,Negative*%
%FSLAX46Y46*%
G04 Gerber Fmt 4.6, Leading zero omitted, Abs format (unit mm)*
G04 Created by KiCad (PCBNEW 8.0.6-8.0.6-0~ubuntu24.04.1) date 2025-04-10 23:09:08*
%MOMM*%
%LPD*%
G01*
G04 APERTURE LIST*
G04 Aperture macros list*
%AMRoundRect*
0 Rectangle with rounded corners*
0 $1 Rounding radius*
0 $2 $3 $4 $5 $6 $7 $8 $9 X,Y pos of 4 corners*
0 Add a 4 corners polygon primitive as box body*
4,1,4,$2,$3,$4,$5,$6,$7,$8,$9,$2,$3,0*
0 Add four circle primitives for the rounded corners*
1,1,$1+$1,$2,$3*
1,1,$1+$1,$4,$5*
1,1,$1+$1,$6,$7*
1,1,$1+$1,$8,$9*
0 Add four rect primitives between the rounded corners*
20,1,$1+$1,$2,$3,$4,$5,0*
20,1,$1+$1,$4,$5,$6,$7,0*
20,1,$1+$1,$6,$7,$8,$9,0*
20,1,$1+$1,$8,$9,$2,$3,0*%
G04 Aperture macros list end*
%ADD10RoundRect,0.250000X-0.625000X0.350000X-0.625000X-0.350000X0.625000X-0.350000X0.625000X0.350000X0*%
%ADD11O,1.750000X1.200000*%
%ADD12C,1.752600*%
%ADD13C,2.000000*%
%ADD14C,1.400000*%
%ADD15O,1.400000X1.400000*%
%ADD16R,1.700000X1.700000*%
%ADD17O,1.700000X1.700000*%
%ADD18RoundRect,0.300000X-0.500000X-0.000010X0.500000X-0.000010X0.500000X0.000010X-0.500000X0.000010X0*%
G04 APERTURE END LIST*
D10*
%TO.C,J1*%
X106700000Y-28400000D03*
D11*
X106700000Y-30400000D03*
%TD*%
D12*
%TO.C,U2*%
X63480000Y-45900000D03*
X66020000Y-45900000D03*
X68560000Y-45900000D03*
X71100000Y-45900000D03*
X73640000Y-45900000D03*
X76180000Y-45900000D03*
X78720000Y-45900000D03*
X81260000Y-45900000D03*
X83800000Y-45900000D03*
X86340000Y-45900000D03*
X88880000Y-45900000D03*
X91420000Y-45900000D03*
X91420000Y-30660000D03*
X88880000Y-30660000D03*
X86340000Y-30660000D03*
X83800000Y-30660000D03*
X81260000Y-30660000D03*
X78720000Y-30660000D03*
X76180000Y-30660000D03*
X73640000Y-30660000D03*
X71100000Y-30660000D03*
X68560000Y-30660000D03*
X66020000Y-30660000D03*
X63480000Y-30660000D03*
X60940000Y-30660000D03*
X60940000Y-45900000D03*
%TD*%
D13*
%TO.C,SW1*%
X96600000Y-32800000D03*
X96600000Y-26300000D03*
X101100000Y-32800000D03*
X101100000Y-26300000D03*
%TD*%
D14*
%TO.C,R1*%
X66795000Y-27500000D03*
D15*
X68695000Y-27500000D03*
%TD*%
D16*
%TO.C,J3*%
X84600000Y-25500000D03*
D17*
X87140000Y-25500000D03*
X89680000Y-25500000D03*
X92220000Y-25500000D03*
%TD*%
D14*
%TO.C,R2*%
X61395000Y-27500000D03*
D15*
X63295000Y-27500000D03*
%TD*%
D18*
%TO.C,U1*%
X95400000Y-36520000D03*
X95400000Y-37790000D03*
X95400000Y-39060000D03*
X95400000Y-40330000D03*
X95400000Y-41600000D03*
X95400000Y-42870000D03*
X95400000Y-44140000D03*
X95400000Y-45410000D03*
X105800000Y-41600000D03*
X105800000Y-40330000D03*
X105800000Y-39060000D03*
X105800000Y-37790000D03*
%TD*%
D16*
%TO.C,J4*%
X107800000Y-42300000D03*
%TD*%
%TO.C,J2*%
X80700000Y-25500000D03*
D17*
X78160000Y-25500000D03*
X75620000Y-25500000D03*
X73080000Y-25500000D03*
%TD*%
M02*
