%TF.GenerationSoftware,KiCad,Pcbnew,8.0.6-8.0.6-0~ubuntu24.04.1*%
%TF.CreationDate,2025-04-10T23:01:06-04:00*%
%TF.ProjectId,super-mini-mesh-kicad,73757065-722d-46d6-996e-692d6d657368,rev?*%
%TF.SameCoordinates,Original*%
%TF.FileFunction,Legend,Top*%
%TF.FilePolarity,Positive*%
%FSLAX46Y46*%
G04 Gerber Fmt 4.6, Leading zero omitted, Abs format (unit mm)*
G04 Created by KiCad (PCBNEW 8.0.6-8.0.6-0~ubuntu24.04.1) date 2025-04-10 23:01:06*
%MOMM*%
%LPD*%
G01*
G04 APERTURE LIST*
%ADD10C,0.150000*%
%ADD11C,0.120000*%
%ADD12C,0.127000*%
%ADD13C,0.381000*%
%ADD14C,0.200000*%
%ADD15C,1.752600*%
G04 APERTURE END LIST*
D10*
X110260961Y-44887030D02*
X110794295Y-44734649D01*
X110794295Y-44734649D02*
X110413342Y-44582268D01*
X110413342Y-44582268D02*
X110794295Y-44429887D01*
X110794295Y-44429887D02*
X110260961Y-44277506D01*
X110794295Y-43629887D02*
X110375247Y-43629887D01*
X110375247Y-43629887D02*
X110299057Y-43667982D01*
X110299057Y-43667982D02*
X110260961Y-43744173D01*
X110260961Y-43744173D02*
X110260961Y-43896554D01*
X110260961Y-43896554D02*
X110299057Y-43972744D01*
X110756200Y-43629887D02*
X110794295Y-43706078D01*
X110794295Y-43706078D02*
X110794295Y-43896554D01*
X110794295Y-43896554D02*
X110756200Y-43972744D01*
X110756200Y-43972744D02*
X110680009Y-44010840D01*
X110680009Y-44010840D02*
X110603819Y-44010840D01*
X110603819Y-44010840D02*
X110527628Y-43972744D01*
X110527628Y-43972744D02*
X110489533Y-43896554D01*
X110489533Y-43896554D02*
X110489533Y-43706078D01*
X110489533Y-43706078D02*
X110451438Y-43629887D01*
X110260961Y-43363220D02*
X110260961Y-43058458D01*
X109994295Y-43248934D02*
X110680009Y-43248934D01*
X110680009Y-43248934D02*
X110756200Y-43210839D01*
X110756200Y-43210839D02*
X110794295Y-43134649D01*
X110794295Y-43134649D02*
X110794295Y-43058458D01*
X110756200Y-42487029D02*
X110794295Y-42563220D01*
X110794295Y-42563220D02*
X110794295Y-42715601D01*
X110794295Y-42715601D02*
X110756200Y-42791791D01*
X110756200Y-42791791D02*
X110680009Y-42829887D01*
X110680009Y-42829887D02*
X110375247Y-42829887D01*
X110375247Y-42829887D02*
X110299057Y-42791791D01*
X110299057Y-42791791D02*
X110260961Y-42715601D01*
X110260961Y-42715601D02*
X110260961Y-42563220D01*
X110260961Y-42563220D02*
X110299057Y-42487029D01*
X110299057Y-42487029D02*
X110375247Y-42448934D01*
X110375247Y-42448934D02*
X110451438Y-42448934D01*
X110451438Y-42448934D02*
X110527628Y-42829887D01*
X110794295Y-42106077D02*
X110260961Y-42106077D01*
X110413342Y-42106077D02*
X110337152Y-42067982D01*
X110337152Y-42067982D02*
X110299057Y-42029887D01*
X110299057Y-42029887D02*
X110260961Y-41953696D01*
X110260961Y-41953696D02*
X110260961Y-41877506D01*
X110794295Y-41610839D02*
X109994295Y-41610839D01*
X110299057Y-41610839D02*
X110260961Y-41534649D01*
X110260961Y-41534649D02*
X110260961Y-41382268D01*
X110260961Y-41382268D02*
X110299057Y-41306077D01*
X110299057Y-41306077D02*
X110337152Y-41267982D01*
X110337152Y-41267982D02*
X110413342Y-41229887D01*
X110413342Y-41229887D02*
X110641914Y-41229887D01*
X110641914Y-41229887D02*
X110718104Y-41267982D01*
X110718104Y-41267982D02*
X110756200Y-41306077D01*
X110756200Y-41306077D02*
X110794295Y-41382268D01*
X110794295Y-41382268D02*
X110794295Y-41534649D01*
X110794295Y-41534649D02*
X110756200Y-41610839D01*
X110756200Y-40582267D02*
X110794295Y-40658458D01*
X110794295Y-40658458D02*
X110794295Y-40810839D01*
X110794295Y-40810839D02*
X110756200Y-40887029D01*
X110756200Y-40887029D02*
X110680009Y-40925125D01*
X110680009Y-40925125D02*
X110375247Y-40925125D01*
X110375247Y-40925125D02*
X110299057Y-40887029D01*
X110299057Y-40887029D02*
X110260961Y-40810839D01*
X110260961Y-40810839D02*
X110260961Y-40658458D01*
X110260961Y-40658458D02*
X110299057Y-40582267D01*
X110299057Y-40582267D02*
X110375247Y-40544172D01*
X110375247Y-40544172D02*
X110451438Y-40544172D01*
X110451438Y-40544172D02*
X110527628Y-40925125D01*
X110794295Y-39858458D02*
X110375247Y-39858458D01*
X110375247Y-39858458D02*
X110299057Y-39896553D01*
X110299057Y-39896553D02*
X110260961Y-39972744D01*
X110260961Y-39972744D02*
X110260961Y-40125125D01*
X110260961Y-40125125D02*
X110299057Y-40201315D01*
X110756200Y-39858458D02*
X110794295Y-39934649D01*
X110794295Y-39934649D02*
X110794295Y-40125125D01*
X110794295Y-40125125D02*
X110756200Y-40201315D01*
X110756200Y-40201315D02*
X110680009Y-40239411D01*
X110680009Y-40239411D02*
X110603819Y-40239411D01*
X110603819Y-40239411D02*
X110527628Y-40201315D01*
X110527628Y-40201315D02*
X110489533Y-40125125D01*
X110489533Y-40125125D02*
X110489533Y-39934649D01*
X110489533Y-39934649D02*
X110451438Y-39858458D01*
X110794295Y-39477505D02*
X110260961Y-39477505D01*
X110413342Y-39477505D02*
X110337152Y-39439410D01*
X110337152Y-39439410D02*
X110299057Y-39401315D01*
X110299057Y-39401315D02*
X110260961Y-39325124D01*
X110260961Y-39325124D02*
X110260961Y-39248934D01*
X110260961Y-39096553D02*
X110260961Y-38791791D01*
X110794295Y-38982267D02*
X110108580Y-38982267D01*
X110108580Y-38982267D02*
X110032390Y-38944172D01*
X110032390Y-38944172D02*
X109994295Y-38867982D01*
X109994295Y-38867982D02*
X109994295Y-38791791D01*
X110794295Y-38525124D02*
X110260961Y-38525124D01*
X109994295Y-38525124D02*
X110032390Y-38563220D01*
X110032390Y-38563220D02*
X110070485Y-38525124D01*
X110070485Y-38525124D02*
X110032390Y-38487029D01*
X110032390Y-38487029D02*
X109994295Y-38525124D01*
X109994295Y-38525124D02*
X110070485Y-38525124D01*
X110756200Y-37839410D02*
X110794295Y-37915601D01*
X110794295Y-37915601D02*
X110794295Y-38067982D01*
X110794295Y-38067982D02*
X110756200Y-38144172D01*
X110756200Y-38144172D02*
X110680009Y-38182268D01*
X110680009Y-38182268D02*
X110375247Y-38182268D01*
X110375247Y-38182268D02*
X110299057Y-38144172D01*
X110299057Y-38144172D02*
X110260961Y-38067982D01*
X110260961Y-38067982D02*
X110260961Y-37915601D01*
X110260961Y-37915601D02*
X110299057Y-37839410D01*
X110299057Y-37839410D02*
X110375247Y-37801315D01*
X110375247Y-37801315D02*
X110451438Y-37801315D01*
X110451438Y-37801315D02*
X110527628Y-38182268D01*
X110794295Y-37344173D02*
X110756200Y-37420363D01*
X110756200Y-37420363D02*
X110680009Y-37458458D01*
X110680009Y-37458458D02*
X109994295Y-37458458D01*
X110794295Y-36696553D02*
X109994295Y-36696553D01*
X110756200Y-36696553D02*
X110794295Y-36772744D01*
X110794295Y-36772744D02*
X110794295Y-36925125D01*
X110794295Y-36925125D02*
X110756200Y-37001315D01*
X110756200Y-37001315D02*
X110718104Y-37039410D01*
X110718104Y-37039410D02*
X110641914Y-37077506D01*
X110641914Y-37077506D02*
X110413342Y-37077506D01*
X110413342Y-37077506D02*
X110337152Y-37039410D01*
X110337152Y-37039410D02*
X110299057Y-37001315D01*
X110299057Y-37001315D02*
X110260961Y-36925125D01*
X110260961Y-36925125D02*
X110260961Y-36772744D01*
X110260961Y-36772744D02*
X110299057Y-36696553D01*
X110756200Y-36353696D02*
X110794295Y-36277505D01*
X110794295Y-36277505D02*
X110794295Y-36125124D01*
X110794295Y-36125124D02*
X110756200Y-36048934D01*
X110756200Y-36048934D02*
X110680009Y-36010838D01*
X110680009Y-36010838D02*
X110641914Y-36010838D01*
X110641914Y-36010838D02*
X110565723Y-36048934D01*
X110565723Y-36048934D02*
X110527628Y-36125124D01*
X110527628Y-36125124D02*
X110527628Y-36239410D01*
X110527628Y-36239410D02*
X110489533Y-36315600D01*
X110489533Y-36315600D02*
X110413342Y-36353696D01*
X110413342Y-36353696D02*
X110375247Y-36353696D01*
X110375247Y-36353696D02*
X110299057Y-36315600D01*
X110299057Y-36315600D02*
X110260961Y-36239410D01*
X110260961Y-36239410D02*
X110260961Y-36125124D01*
X110260961Y-36125124D02*
X110299057Y-36048934D01*
X110756200Y-35325124D02*
X110794295Y-35401315D01*
X110794295Y-35401315D02*
X110794295Y-35553696D01*
X110794295Y-35553696D02*
X110756200Y-35629886D01*
X110756200Y-35629886D02*
X110718104Y-35667981D01*
X110718104Y-35667981D02*
X110641914Y-35706077D01*
X110641914Y-35706077D02*
X110413342Y-35706077D01*
X110413342Y-35706077D02*
X110337152Y-35667981D01*
X110337152Y-35667981D02*
X110299057Y-35629886D01*
X110299057Y-35629886D02*
X110260961Y-35553696D01*
X110260961Y-35553696D02*
X110260961Y-35401315D01*
X110260961Y-35401315D02*
X110299057Y-35325124D01*
X110794295Y-34982267D02*
X109994295Y-34982267D01*
X110794295Y-34639410D02*
X110375247Y-34639410D01*
X110375247Y-34639410D02*
X110299057Y-34677505D01*
X110299057Y-34677505D02*
X110260961Y-34753696D01*
X110260961Y-34753696D02*
X110260961Y-34867982D01*
X110260961Y-34867982D02*
X110299057Y-34944172D01*
X110299057Y-34944172D02*
X110337152Y-34982267D01*
X110794295Y-34144172D02*
X110756200Y-34220362D01*
X110756200Y-34220362D02*
X110718104Y-34258457D01*
X110718104Y-34258457D02*
X110641914Y-34296553D01*
X110641914Y-34296553D02*
X110413342Y-34296553D01*
X110413342Y-34296553D02*
X110337152Y-34258457D01*
X110337152Y-34258457D02*
X110299057Y-34220362D01*
X110299057Y-34220362D02*
X110260961Y-34144172D01*
X110260961Y-34144172D02*
X110260961Y-34029886D01*
X110260961Y-34029886D02*
X110299057Y-33953695D01*
X110299057Y-33953695D02*
X110337152Y-33915600D01*
X110337152Y-33915600D02*
X110413342Y-33877505D01*
X110413342Y-33877505D02*
X110641914Y-33877505D01*
X110641914Y-33877505D02*
X110718104Y-33915600D01*
X110718104Y-33915600D02*
X110756200Y-33953695D01*
X110756200Y-33953695D02*
X110794295Y-34029886D01*
X110794295Y-34029886D02*
X110794295Y-34144172D01*
X110794295Y-33420362D02*
X110756200Y-33496552D01*
X110756200Y-33496552D02*
X110718104Y-33534647D01*
X110718104Y-33534647D02*
X110641914Y-33572743D01*
X110641914Y-33572743D02*
X110413342Y-33572743D01*
X110413342Y-33572743D02*
X110337152Y-33534647D01*
X110337152Y-33534647D02*
X110299057Y-33496552D01*
X110299057Y-33496552D02*
X110260961Y-33420362D01*
X110260961Y-33420362D02*
X110260961Y-33306076D01*
X110260961Y-33306076D02*
X110299057Y-33229885D01*
X110299057Y-33229885D02*
X110337152Y-33191790D01*
X110337152Y-33191790D02*
X110413342Y-33153695D01*
X110413342Y-33153695D02*
X110641914Y-33153695D01*
X110641914Y-33153695D02*
X110718104Y-33191790D01*
X110718104Y-33191790D02*
X110756200Y-33229885D01*
X110756200Y-33229885D02*
X110794295Y-33306076D01*
X110794295Y-33306076D02*
X110794295Y-33420362D01*
X110794295Y-32696552D02*
X110756200Y-32772742D01*
X110756200Y-32772742D02*
X110680009Y-32810837D01*
X110680009Y-32810837D02*
X109994295Y-32810837D01*
X110718104Y-32391789D02*
X110756200Y-32353694D01*
X110756200Y-32353694D02*
X110794295Y-32391789D01*
X110794295Y-32391789D02*
X110756200Y-32429885D01*
X110756200Y-32429885D02*
X110718104Y-32391789D01*
X110718104Y-32391789D02*
X110794295Y-32391789D01*
X110794295Y-31896552D02*
X110756200Y-31972742D01*
X110756200Y-31972742D02*
X110718104Y-32010837D01*
X110718104Y-32010837D02*
X110641914Y-32048933D01*
X110641914Y-32048933D02*
X110413342Y-32048933D01*
X110413342Y-32048933D02*
X110337152Y-32010837D01*
X110337152Y-32010837D02*
X110299057Y-31972742D01*
X110299057Y-31972742D02*
X110260961Y-31896552D01*
X110260961Y-31896552D02*
X110260961Y-31782266D01*
X110260961Y-31782266D02*
X110299057Y-31706075D01*
X110299057Y-31706075D02*
X110337152Y-31667980D01*
X110337152Y-31667980D02*
X110413342Y-31629885D01*
X110413342Y-31629885D02*
X110641914Y-31629885D01*
X110641914Y-31629885D02*
X110718104Y-31667980D01*
X110718104Y-31667980D02*
X110756200Y-31706075D01*
X110756200Y-31706075D02*
X110794295Y-31782266D01*
X110794295Y-31782266D02*
X110794295Y-31896552D01*
X110794295Y-31287027D02*
X110260961Y-31287027D01*
X110413342Y-31287027D02*
X110337152Y-31248932D01*
X110337152Y-31248932D02*
X110299057Y-31210837D01*
X110299057Y-31210837D02*
X110260961Y-31134646D01*
X110260961Y-31134646D02*
X110260961Y-31058456D01*
X110260961Y-30448932D02*
X110908580Y-30448932D01*
X110908580Y-30448932D02*
X110984771Y-30487027D01*
X110984771Y-30487027D02*
X111022866Y-30525123D01*
X111022866Y-30525123D02*
X111060961Y-30601313D01*
X111060961Y-30601313D02*
X111060961Y-30715599D01*
X111060961Y-30715599D02*
X111022866Y-30791789D01*
X110756200Y-30448932D02*
X110794295Y-30525123D01*
X110794295Y-30525123D02*
X110794295Y-30677504D01*
X110794295Y-30677504D02*
X110756200Y-30753694D01*
X110756200Y-30753694D02*
X110718104Y-30791789D01*
X110718104Y-30791789D02*
X110641914Y-30829885D01*
X110641914Y-30829885D02*
X110413342Y-30829885D01*
X110413342Y-30829885D02*
X110337152Y-30791789D01*
X110337152Y-30791789D02*
X110299057Y-30753694D01*
X110299057Y-30753694D02*
X110260961Y-30677504D01*
X110260961Y-30677504D02*
X110260961Y-30525123D01*
X110260961Y-30525123D02*
X110299057Y-30448932D01*
X109956200Y-29496551D02*
X110984771Y-30182265D01*
X110260961Y-29344170D02*
X110260961Y-29039408D01*
X109994295Y-29229884D02*
X110680009Y-29229884D01*
X110680009Y-29229884D02*
X110756200Y-29191789D01*
X110756200Y-29191789D02*
X110794295Y-29115599D01*
X110794295Y-29115599D02*
X110794295Y-29039408D01*
X110794295Y-28772741D02*
X109994295Y-28772741D01*
X110794295Y-28429884D02*
X110375247Y-28429884D01*
X110375247Y-28429884D02*
X110299057Y-28467979D01*
X110299057Y-28467979D02*
X110260961Y-28544170D01*
X110260961Y-28544170D02*
X110260961Y-28658456D01*
X110260961Y-28658456D02*
X110299057Y-28734646D01*
X110299057Y-28734646D02*
X110337152Y-28772741D01*
X110794295Y-28048931D02*
X110260961Y-28048931D01*
X109994295Y-28048931D02*
X110032390Y-28087027D01*
X110032390Y-28087027D02*
X110070485Y-28048931D01*
X110070485Y-28048931D02*
X110032390Y-28010836D01*
X110032390Y-28010836D02*
X109994295Y-28048931D01*
X109994295Y-28048931D02*
X110070485Y-28048931D01*
X110756200Y-27706075D02*
X110794295Y-27629884D01*
X110794295Y-27629884D02*
X110794295Y-27477503D01*
X110794295Y-27477503D02*
X110756200Y-27401313D01*
X110756200Y-27401313D02*
X110680009Y-27363217D01*
X110680009Y-27363217D02*
X110641914Y-27363217D01*
X110641914Y-27363217D02*
X110565723Y-27401313D01*
X110565723Y-27401313D02*
X110527628Y-27477503D01*
X110527628Y-27477503D02*
X110527628Y-27591789D01*
X110527628Y-27591789D02*
X110489533Y-27667979D01*
X110489533Y-27667979D02*
X110413342Y-27706075D01*
X110413342Y-27706075D02*
X110375247Y-27706075D01*
X110375247Y-27706075D02*
X110299057Y-27667979D01*
X110299057Y-27667979D02*
X110260961Y-27591789D01*
X110260961Y-27591789D02*
X110260961Y-27477503D01*
X110260961Y-27477503D02*
X110299057Y-27401313D01*
X110260961Y-27134646D02*
X110260961Y-26829884D01*
X109994295Y-27020360D02*
X110680009Y-27020360D01*
X110680009Y-27020360D02*
X110756200Y-26982265D01*
X110756200Y-26982265D02*
X110794295Y-26906075D01*
X110794295Y-26906075D02*
X110794295Y-26829884D01*
X110794295Y-26448932D02*
X110756200Y-26525122D01*
X110756200Y-26525122D02*
X110680009Y-26563217D01*
X110680009Y-26563217D02*
X109994295Y-26563217D01*
X110756200Y-25839407D02*
X110794295Y-25915598D01*
X110794295Y-25915598D02*
X110794295Y-26067979D01*
X110794295Y-26067979D02*
X110756200Y-26144169D01*
X110756200Y-26144169D02*
X110680009Y-26182265D01*
X110680009Y-26182265D02*
X110375247Y-26182265D01*
X110375247Y-26182265D02*
X110299057Y-26144169D01*
X110299057Y-26144169D02*
X110260961Y-26067979D01*
X110260961Y-26067979D02*
X110260961Y-25915598D01*
X110260961Y-25915598D02*
X110299057Y-25839407D01*
X110299057Y-25839407D02*
X110375247Y-25801312D01*
X110375247Y-25801312D02*
X110451438Y-25801312D01*
X110451438Y-25801312D02*
X110527628Y-26182265D01*
X107412969Y-45360961D02*
X107603445Y-45894295D01*
X107603445Y-45894295D02*
X107793922Y-45360961D01*
X108251065Y-45094295D02*
X108327255Y-45094295D01*
X108327255Y-45094295D02*
X108403446Y-45132390D01*
X108403446Y-45132390D02*
X108441541Y-45170485D01*
X108441541Y-45170485D02*
X108479636Y-45246676D01*
X108479636Y-45246676D02*
X108517731Y-45399057D01*
X108517731Y-45399057D02*
X108517731Y-45589533D01*
X108517731Y-45589533D02*
X108479636Y-45741914D01*
X108479636Y-45741914D02*
X108441541Y-45818104D01*
X108441541Y-45818104D02*
X108403446Y-45856200D01*
X108403446Y-45856200D02*
X108327255Y-45894295D01*
X108327255Y-45894295D02*
X108251065Y-45894295D01*
X108251065Y-45894295D02*
X108174874Y-45856200D01*
X108174874Y-45856200D02*
X108136779Y-45818104D01*
X108136779Y-45818104D02*
X108098684Y-45741914D01*
X108098684Y-45741914D02*
X108060588Y-45589533D01*
X108060588Y-45589533D02*
X108060588Y-45399057D01*
X108060588Y-45399057D02*
X108098684Y-45246676D01*
X108098684Y-45246676D02*
X108136779Y-45170485D01*
X108136779Y-45170485D02*
X108174874Y-45132390D01*
X108174874Y-45132390D02*
X108251065Y-45094295D01*
X108860589Y-45818104D02*
X108898684Y-45856200D01*
X108898684Y-45856200D02*
X108860589Y-45894295D01*
X108860589Y-45894295D02*
X108822493Y-45856200D01*
X108822493Y-45856200D02*
X108860589Y-45818104D01*
X108860589Y-45818104D02*
X108860589Y-45894295D01*
X109660588Y-45894295D02*
X109203445Y-45894295D01*
X109432017Y-45894295D02*
X109432017Y-45094295D01*
X109432017Y-45094295D02*
X109355826Y-45208580D01*
X109355826Y-45208580D02*
X109279636Y-45284771D01*
X109279636Y-45284771D02*
X109203445Y-45322866D01*
X106951064Y-39765723D02*
X107332017Y-39765723D01*
X106874874Y-39994295D02*
X107141541Y-39194295D01*
X107141541Y-39194295D02*
X107408207Y-39994295D01*
X107674874Y-39994295D02*
X107674874Y-39194295D01*
X107674874Y-39194295D02*
X108132017Y-39994295D01*
X108132017Y-39994295D02*
X108132017Y-39194295D01*
X108398683Y-39194295D02*
X108855826Y-39194295D01*
X108627254Y-39994295D02*
X108627254Y-39194295D01*
X98546303Y-25294295D02*
X98279636Y-24913342D01*
X98089160Y-25294295D02*
X98089160Y-24494295D01*
X98089160Y-24494295D02*
X98393922Y-24494295D01*
X98393922Y-24494295D02*
X98470112Y-24532390D01*
X98470112Y-24532390D02*
X98508207Y-24570485D01*
X98508207Y-24570485D02*
X98546303Y-24646676D01*
X98546303Y-24646676D02*
X98546303Y-24760961D01*
X98546303Y-24760961D02*
X98508207Y-24837152D01*
X98508207Y-24837152D02*
X98470112Y-24875247D01*
X98470112Y-24875247D02*
X98393922Y-24913342D01*
X98393922Y-24913342D02*
X98089160Y-24913342D01*
X98851064Y-25256200D02*
X98965350Y-25294295D01*
X98965350Y-25294295D02*
X99155826Y-25294295D01*
X99155826Y-25294295D02*
X99232017Y-25256200D01*
X99232017Y-25256200D02*
X99270112Y-25218104D01*
X99270112Y-25218104D02*
X99308207Y-25141914D01*
X99308207Y-25141914D02*
X99308207Y-25065723D01*
X99308207Y-25065723D02*
X99270112Y-24989533D01*
X99270112Y-24989533D02*
X99232017Y-24951438D01*
X99232017Y-24951438D02*
X99155826Y-24913342D01*
X99155826Y-24913342D02*
X99003445Y-24875247D01*
X99003445Y-24875247D02*
X98927255Y-24837152D01*
X98927255Y-24837152D02*
X98889160Y-24799057D01*
X98889160Y-24799057D02*
X98851064Y-24722866D01*
X98851064Y-24722866D02*
X98851064Y-24646676D01*
X98851064Y-24646676D02*
X98889160Y-24570485D01*
X98889160Y-24570485D02*
X98927255Y-24532390D01*
X98927255Y-24532390D02*
X99003445Y-24494295D01*
X99003445Y-24494295D02*
X99193922Y-24494295D01*
X99193922Y-24494295D02*
X99308207Y-24532390D01*
X99536779Y-24494295D02*
X99993922Y-24494295D01*
X99765350Y-25294295D02*
X99765350Y-24494295D01*
X106208207Y-33132390D02*
X106132017Y-33094295D01*
X106132017Y-33094295D02*
X106017731Y-33094295D01*
X106017731Y-33094295D02*
X105903445Y-33132390D01*
X105903445Y-33132390D02*
X105827255Y-33208580D01*
X105827255Y-33208580D02*
X105789160Y-33284771D01*
X105789160Y-33284771D02*
X105751064Y-33437152D01*
X105751064Y-33437152D02*
X105751064Y-33551438D01*
X105751064Y-33551438D02*
X105789160Y-33703819D01*
X105789160Y-33703819D02*
X105827255Y-33780009D01*
X105827255Y-33780009D02*
X105903445Y-33856200D01*
X105903445Y-33856200D02*
X106017731Y-33894295D01*
X106017731Y-33894295D02*
X106093922Y-33894295D01*
X106093922Y-33894295D02*
X106208207Y-33856200D01*
X106208207Y-33856200D02*
X106246303Y-33818104D01*
X106246303Y-33818104D02*
X106246303Y-33551438D01*
X106246303Y-33551438D02*
X106093922Y-33551438D01*
X106589160Y-33894295D02*
X106589160Y-33094295D01*
X106589160Y-33094295D02*
X107046303Y-33894295D01*
X107046303Y-33894295D02*
X107046303Y-33094295D01*
X107427255Y-33894295D02*
X107427255Y-33094295D01*
X107427255Y-33094295D02*
X107617731Y-33094295D01*
X107617731Y-33094295D02*
X107732017Y-33132390D01*
X107732017Y-33132390D02*
X107808207Y-33208580D01*
X107808207Y-33208580D02*
X107846302Y-33284771D01*
X107846302Y-33284771D02*
X107884398Y-33437152D01*
X107884398Y-33437152D02*
X107884398Y-33551438D01*
X107884398Y-33551438D02*
X107846302Y-33703819D01*
X107846302Y-33703819D02*
X107808207Y-33780009D01*
X107808207Y-33780009D02*
X107732017Y-33856200D01*
X107732017Y-33856200D02*
X107617731Y-33894295D01*
X107617731Y-33894295D02*
X107427255Y-33894295D01*
X106155826Y-25175247D02*
X106270112Y-25213342D01*
X106270112Y-25213342D02*
X106308207Y-25251438D01*
X106308207Y-25251438D02*
X106346303Y-25327628D01*
X106346303Y-25327628D02*
X106346303Y-25441914D01*
X106346303Y-25441914D02*
X106308207Y-25518104D01*
X106308207Y-25518104D02*
X106270112Y-25556200D01*
X106270112Y-25556200D02*
X106193922Y-25594295D01*
X106193922Y-25594295D02*
X105889160Y-25594295D01*
X105889160Y-25594295D02*
X105889160Y-24794295D01*
X105889160Y-24794295D02*
X106155826Y-24794295D01*
X106155826Y-24794295D02*
X106232017Y-24832390D01*
X106232017Y-24832390D02*
X106270112Y-24870485D01*
X106270112Y-24870485D02*
X106308207Y-24946676D01*
X106308207Y-24946676D02*
X106308207Y-25022866D01*
X106308207Y-25022866D02*
X106270112Y-25099057D01*
X106270112Y-25099057D02*
X106232017Y-25137152D01*
X106232017Y-25137152D02*
X106155826Y-25175247D01*
X106155826Y-25175247D02*
X105889160Y-25175247D01*
X106651064Y-25365723D02*
X107032017Y-25365723D01*
X106574874Y-25594295D02*
X106841541Y-24794295D01*
X106841541Y-24794295D02*
X107108207Y-25594295D01*
X107260588Y-24794295D02*
X107717731Y-24794295D01*
X107489159Y-25594295D02*
X107489159Y-24794295D01*
X83708207Y-27632390D02*
X83632017Y-27594295D01*
X83632017Y-27594295D02*
X83517731Y-27594295D01*
X83517731Y-27594295D02*
X83403445Y-27632390D01*
X83403445Y-27632390D02*
X83327255Y-27708580D01*
X83327255Y-27708580D02*
X83289160Y-27784771D01*
X83289160Y-27784771D02*
X83251064Y-27937152D01*
X83251064Y-27937152D02*
X83251064Y-28051438D01*
X83251064Y-28051438D02*
X83289160Y-28203819D01*
X83289160Y-28203819D02*
X83327255Y-28280009D01*
X83327255Y-28280009D02*
X83403445Y-28356200D01*
X83403445Y-28356200D02*
X83517731Y-28394295D01*
X83517731Y-28394295D02*
X83593922Y-28394295D01*
X83593922Y-28394295D02*
X83708207Y-28356200D01*
X83708207Y-28356200D02*
X83746303Y-28318104D01*
X83746303Y-28318104D02*
X83746303Y-28051438D01*
X83746303Y-28051438D02*
X83593922Y-28051438D01*
X84089160Y-28394295D02*
X84089160Y-27594295D01*
X84089160Y-27594295D02*
X84546303Y-28394295D01*
X84546303Y-28394295D02*
X84546303Y-27594295D01*
X84927255Y-28394295D02*
X84927255Y-27594295D01*
X84927255Y-27594295D02*
X85117731Y-27594295D01*
X85117731Y-27594295D02*
X85232017Y-27632390D01*
X85232017Y-27632390D02*
X85308207Y-27708580D01*
X85308207Y-27708580D02*
X85346302Y-27784771D01*
X85346302Y-27784771D02*
X85384398Y-27937152D01*
X85384398Y-27937152D02*
X85384398Y-28051438D01*
X85384398Y-28051438D02*
X85346302Y-28203819D01*
X85346302Y-28203819D02*
X85308207Y-28280009D01*
X85308207Y-28280009D02*
X85232017Y-28356200D01*
X85232017Y-28356200D02*
X85117731Y-28394295D01*
X85117731Y-28394295D02*
X84927255Y-28394295D01*
X86512969Y-27594295D02*
X87008207Y-27594295D01*
X87008207Y-27594295D02*
X86741541Y-27899057D01*
X86741541Y-27899057D02*
X86855826Y-27899057D01*
X86855826Y-27899057D02*
X86932017Y-27937152D01*
X86932017Y-27937152D02*
X86970112Y-27975247D01*
X86970112Y-27975247D02*
X87008207Y-28051438D01*
X87008207Y-28051438D02*
X87008207Y-28241914D01*
X87008207Y-28241914D02*
X86970112Y-28318104D01*
X86970112Y-28318104D02*
X86932017Y-28356200D01*
X86932017Y-28356200D02*
X86855826Y-28394295D01*
X86855826Y-28394295D02*
X86627255Y-28394295D01*
X86627255Y-28394295D02*
X86551064Y-28356200D01*
X86551064Y-28356200D02*
X86512969Y-28318104D01*
X87236779Y-27594295D02*
X87503446Y-28394295D01*
X87503446Y-28394295D02*
X87770112Y-27594295D01*
X88951064Y-28356200D02*
X89065350Y-28394295D01*
X89065350Y-28394295D02*
X89255826Y-28394295D01*
X89255826Y-28394295D02*
X89332017Y-28356200D01*
X89332017Y-28356200D02*
X89370112Y-28318104D01*
X89370112Y-28318104D02*
X89408207Y-28241914D01*
X89408207Y-28241914D02*
X89408207Y-28165723D01*
X89408207Y-28165723D02*
X89370112Y-28089533D01*
X89370112Y-28089533D02*
X89332017Y-28051438D01*
X89332017Y-28051438D02*
X89255826Y-28013342D01*
X89255826Y-28013342D02*
X89103445Y-27975247D01*
X89103445Y-27975247D02*
X89027255Y-27937152D01*
X89027255Y-27937152D02*
X88989160Y-27899057D01*
X88989160Y-27899057D02*
X88951064Y-27822866D01*
X88951064Y-27822866D02*
X88951064Y-27746676D01*
X88951064Y-27746676D02*
X88989160Y-27670485D01*
X88989160Y-27670485D02*
X89027255Y-27632390D01*
X89027255Y-27632390D02*
X89103445Y-27594295D01*
X89103445Y-27594295D02*
X89293922Y-27594295D01*
X89293922Y-27594295D02*
X89408207Y-27632390D01*
X90208208Y-28318104D02*
X90170112Y-28356200D01*
X90170112Y-28356200D02*
X90055827Y-28394295D01*
X90055827Y-28394295D02*
X89979636Y-28394295D01*
X89979636Y-28394295D02*
X89865350Y-28356200D01*
X89865350Y-28356200D02*
X89789160Y-28280009D01*
X89789160Y-28280009D02*
X89751065Y-28203819D01*
X89751065Y-28203819D02*
X89712969Y-28051438D01*
X89712969Y-28051438D02*
X89712969Y-27937152D01*
X89712969Y-27937152D02*
X89751065Y-27784771D01*
X89751065Y-27784771D02*
X89789160Y-27708580D01*
X89789160Y-27708580D02*
X89865350Y-27632390D01*
X89865350Y-27632390D02*
X89979636Y-27594295D01*
X89979636Y-27594295D02*
X90055827Y-27594295D01*
X90055827Y-27594295D02*
X90170112Y-27632390D01*
X90170112Y-27632390D02*
X90208208Y-27670485D01*
X90932017Y-28394295D02*
X90551065Y-28394295D01*
X90551065Y-28394295D02*
X90551065Y-27594295D01*
X91951064Y-28356200D02*
X92065350Y-28394295D01*
X92065350Y-28394295D02*
X92255826Y-28394295D01*
X92255826Y-28394295D02*
X92332017Y-28356200D01*
X92332017Y-28356200D02*
X92370112Y-28318104D01*
X92370112Y-28318104D02*
X92408207Y-28241914D01*
X92408207Y-28241914D02*
X92408207Y-28165723D01*
X92408207Y-28165723D02*
X92370112Y-28089533D01*
X92370112Y-28089533D02*
X92332017Y-28051438D01*
X92332017Y-28051438D02*
X92255826Y-28013342D01*
X92255826Y-28013342D02*
X92103445Y-27975247D01*
X92103445Y-27975247D02*
X92027255Y-27937152D01*
X92027255Y-27937152D02*
X91989160Y-27899057D01*
X91989160Y-27899057D02*
X91951064Y-27822866D01*
X91951064Y-27822866D02*
X91951064Y-27746676D01*
X91951064Y-27746676D02*
X91989160Y-27670485D01*
X91989160Y-27670485D02*
X92027255Y-27632390D01*
X92027255Y-27632390D02*
X92103445Y-27594295D01*
X92103445Y-27594295D02*
X92293922Y-27594295D01*
X92293922Y-27594295D02*
X92408207Y-27632390D01*
X92751065Y-28394295D02*
X92751065Y-27594295D01*
X92751065Y-27594295D02*
X92941541Y-27594295D01*
X92941541Y-27594295D02*
X93055827Y-27632390D01*
X93055827Y-27632390D02*
X93132017Y-27708580D01*
X93132017Y-27708580D02*
X93170112Y-27784771D01*
X93170112Y-27784771D02*
X93208208Y-27937152D01*
X93208208Y-27937152D02*
X93208208Y-28051438D01*
X93208208Y-28051438D02*
X93170112Y-28203819D01*
X93170112Y-28203819D02*
X93132017Y-28280009D01*
X93132017Y-28280009D02*
X93055827Y-28356200D01*
X93055827Y-28356200D02*
X92941541Y-28394295D01*
X92941541Y-28394295D02*
X92751065Y-28394295D01*
X93512969Y-28165723D02*
X93893922Y-28165723D01*
X93436779Y-28394295D02*
X93703446Y-27594295D01*
X93703446Y-27594295D02*
X93970112Y-28394295D01*
X80212969Y-27594295D02*
X80708207Y-27594295D01*
X80708207Y-27594295D02*
X80441541Y-27899057D01*
X80441541Y-27899057D02*
X80555826Y-27899057D01*
X80555826Y-27899057D02*
X80632017Y-27937152D01*
X80632017Y-27937152D02*
X80670112Y-27975247D01*
X80670112Y-27975247D02*
X80708207Y-28051438D01*
X80708207Y-28051438D02*
X80708207Y-28241914D01*
X80708207Y-28241914D02*
X80670112Y-28318104D01*
X80670112Y-28318104D02*
X80632017Y-28356200D01*
X80632017Y-28356200D02*
X80555826Y-28394295D01*
X80555826Y-28394295D02*
X80327255Y-28394295D01*
X80327255Y-28394295D02*
X80251064Y-28356200D01*
X80251064Y-28356200D02*
X80212969Y-28318104D01*
X80936779Y-27594295D02*
X81203446Y-28394295D01*
X81203446Y-28394295D02*
X81470112Y-27594295D01*
X75151064Y-27670485D02*
X75189160Y-27632390D01*
X75189160Y-27632390D02*
X75265350Y-27594295D01*
X75265350Y-27594295D02*
X75455826Y-27594295D01*
X75455826Y-27594295D02*
X75532017Y-27632390D01*
X75532017Y-27632390D02*
X75570112Y-27670485D01*
X75570112Y-27670485D02*
X75608207Y-27746676D01*
X75608207Y-27746676D02*
X75608207Y-27822866D01*
X75608207Y-27822866D02*
X75570112Y-27937152D01*
X75570112Y-27937152D02*
X75112969Y-28394295D01*
X75112969Y-28394295D02*
X75608207Y-28394295D01*
X75912969Y-27670485D02*
X75951065Y-27632390D01*
X75951065Y-27632390D02*
X76027255Y-27594295D01*
X76027255Y-27594295D02*
X76217731Y-27594295D01*
X76217731Y-27594295D02*
X76293922Y-27632390D01*
X76293922Y-27632390D02*
X76332017Y-27670485D01*
X76332017Y-27670485D02*
X76370112Y-27746676D01*
X76370112Y-27746676D02*
X76370112Y-27822866D01*
X76370112Y-27822866D02*
X76332017Y-27937152D01*
X76332017Y-27937152D02*
X75874874Y-28394295D01*
X75874874Y-28394295D02*
X76370112Y-28394295D01*
X77751064Y-27670485D02*
X77789160Y-27632390D01*
X77789160Y-27632390D02*
X77865350Y-27594295D01*
X77865350Y-27594295D02*
X78055826Y-27594295D01*
X78055826Y-27594295D02*
X78132017Y-27632390D01*
X78132017Y-27632390D02*
X78170112Y-27670485D01*
X78170112Y-27670485D02*
X78208207Y-27746676D01*
X78208207Y-27746676D02*
X78208207Y-27822866D01*
X78208207Y-27822866D02*
X78170112Y-27937152D01*
X78170112Y-27937152D02*
X77712969Y-28394295D01*
X77712969Y-28394295D02*
X78208207Y-28394295D01*
X78703446Y-27594295D02*
X78779636Y-27594295D01*
X78779636Y-27594295D02*
X78855827Y-27632390D01*
X78855827Y-27632390D02*
X78893922Y-27670485D01*
X78893922Y-27670485D02*
X78932017Y-27746676D01*
X78932017Y-27746676D02*
X78970112Y-27899057D01*
X78970112Y-27899057D02*
X78970112Y-28089533D01*
X78970112Y-28089533D02*
X78932017Y-28241914D01*
X78932017Y-28241914D02*
X78893922Y-28318104D01*
X78893922Y-28318104D02*
X78855827Y-28356200D01*
X78855827Y-28356200D02*
X78779636Y-28394295D01*
X78779636Y-28394295D02*
X78703446Y-28394295D01*
X78703446Y-28394295D02*
X78627255Y-28356200D01*
X78627255Y-28356200D02*
X78589160Y-28318104D01*
X78589160Y-28318104D02*
X78551065Y-28241914D01*
X78551065Y-28241914D02*
X78512969Y-28089533D01*
X78512969Y-28089533D02*
X78512969Y-27899057D01*
X78512969Y-27899057D02*
X78551065Y-27746676D01*
X78551065Y-27746676D02*
X78589160Y-27670485D01*
X78589160Y-27670485D02*
X78627255Y-27632390D01*
X78627255Y-27632390D02*
X78703446Y-27594295D01*
X72408207Y-27632390D02*
X72332017Y-27594295D01*
X72332017Y-27594295D02*
X72217731Y-27594295D01*
X72217731Y-27594295D02*
X72103445Y-27632390D01*
X72103445Y-27632390D02*
X72027255Y-27708580D01*
X72027255Y-27708580D02*
X71989160Y-27784771D01*
X71989160Y-27784771D02*
X71951064Y-27937152D01*
X71951064Y-27937152D02*
X71951064Y-28051438D01*
X71951064Y-28051438D02*
X71989160Y-28203819D01*
X71989160Y-28203819D02*
X72027255Y-28280009D01*
X72027255Y-28280009D02*
X72103445Y-28356200D01*
X72103445Y-28356200D02*
X72217731Y-28394295D01*
X72217731Y-28394295D02*
X72293922Y-28394295D01*
X72293922Y-28394295D02*
X72408207Y-28356200D01*
X72408207Y-28356200D02*
X72446303Y-28318104D01*
X72446303Y-28318104D02*
X72446303Y-28051438D01*
X72446303Y-28051438D02*
X72293922Y-28051438D01*
X72789160Y-28394295D02*
X72789160Y-27594295D01*
X72789160Y-27594295D02*
X73246303Y-28394295D01*
X73246303Y-28394295D02*
X73246303Y-27594295D01*
X73627255Y-28394295D02*
X73627255Y-27594295D01*
X73627255Y-27594295D02*
X73817731Y-27594295D01*
X73817731Y-27594295D02*
X73932017Y-27632390D01*
X73932017Y-27632390D02*
X74008207Y-27708580D01*
X74008207Y-27708580D02*
X74046302Y-27784771D01*
X74046302Y-27784771D02*
X74084398Y-27937152D01*
X74084398Y-27937152D02*
X74084398Y-28051438D01*
X74084398Y-28051438D02*
X74046302Y-28203819D01*
X74046302Y-28203819D02*
X74008207Y-28280009D01*
X74008207Y-28280009D02*
X73932017Y-28356200D01*
X73932017Y-28356200D02*
X73817731Y-28394295D01*
X73817731Y-28394295D02*
X73627255Y-28394295D01*
X62178333Y-26034819D02*
X61845000Y-25558628D01*
X61606905Y-26034819D02*
X61606905Y-25034819D01*
X61606905Y-25034819D02*
X61987857Y-25034819D01*
X61987857Y-25034819D02*
X62083095Y-25082438D01*
X62083095Y-25082438D02*
X62130714Y-25130057D01*
X62130714Y-25130057D02*
X62178333Y-25225295D01*
X62178333Y-25225295D02*
X62178333Y-25368152D01*
X62178333Y-25368152D02*
X62130714Y-25463390D01*
X62130714Y-25463390D02*
X62083095Y-25511009D01*
X62083095Y-25511009D02*
X61987857Y-25558628D01*
X61987857Y-25558628D02*
X61606905Y-25558628D01*
X62559286Y-25130057D02*
X62606905Y-25082438D01*
X62606905Y-25082438D02*
X62702143Y-25034819D01*
X62702143Y-25034819D02*
X62940238Y-25034819D01*
X62940238Y-25034819D02*
X63035476Y-25082438D01*
X63035476Y-25082438D02*
X63083095Y-25130057D01*
X63083095Y-25130057D02*
X63130714Y-25225295D01*
X63130714Y-25225295D02*
X63130714Y-25320533D01*
X63130714Y-25320533D02*
X63083095Y-25463390D01*
X63083095Y-25463390D02*
X62511667Y-26034819D01*
X62511667Y-26034819D02*
X63130714Y-26034819D01*
X67578333Y-26034819D02*
X67245000Y-25558628D01*
X67006905Y-26034819D02*
X67006905Y-25034819D01*
X67006905Y-25034819D02*
X67387857Y-25034819D01*
X67387857Y-25034819D02*
X67483095Y-25082438D01*
X67483095Y-25082438D02*
X67530714Y-25130057D01*
X67530714Y-25130057D02*
X67578333Y-25225295D01*
X67578333Y-25225295D02*
X67578333Y-25368152D01*
X67578333Y-25368152D02*
X67530714Y-25463390D01*
X67530714Y-25463390D02*
X67483095Y-25511009D01*
X67483095Y-25511009D02*
X67387857Y-25558628D01*
X67387857Y-25558628D02*
X67006905Y-25558628D01*
X68530714Y-26034819D02*
X67959286Y-26034819D01*
X68245000Y-26034819D02*
X68245000Y-25034819D01*
X68245000Y-25034819D02*
X68149762Y-25177676D01*
X68149762Y-25177676D02*
X68054524Y-25272914D01*
X68054524Y-25272914D02*
X67959286Y-25320533D01*
X100488152Y-45314761D02*
X101154819Y-45124285D01*
X101154819Y-45124285D02*
X100678628Y-44933809D01*
X100678628Y-44933809D02*
X101154819Y-44743333D01*
X101154819Y-44743333D02*
X100488152Y-44552857D01*
X101154819Y-44171904D02*
X100488152Y-44171904D01*
X100154819Y-44171904D02*
X100202438Y-44219523D01*
X100202438Y-44219523D02*
X100250057Y-44171904D01*
X100250057Y-44171904D02*
X100202438Y-44124285D01*
X100202438Y-44124285D02*
X100154819Y-44171904D01*
X100154819Y-44171904D02*
X100250057Y-44171904D01*
X101154819Y-43552857D02*
X101107200Y-43648095D01*
X101107200Y-43648095D02*
X101059580Y-43695714D01*
X101059580Y-43695714D02*
X100964342Y-43743333D01*
X100964342Y-43743333D02*
X100678628Y-43743333D01*
X100678628Y-43743333D02*
X100583390Y-43695714D01*
X100583390Y-43695714D02*
X100535771Y-43648095D01*
X100535771Y-43648095D02*
X100488152Y-43552857D01*
X100488152Y-43552857D02*
X100488152Y-43410000D01*
X100488152Y-43410000D02*
X100535771Y-43314762D01*
X100535771Y-43314762D02*
X100583390Y-43267143D01*
X100583390Y-43267143D02*
X100678628Y-43219524D01*
X100678628Y-43219524D02*
X100964342Y-43219524D01*
X100964342Y-43219524D02*
X101059580Y-43267143D01*
X101059580Y-43267143D02*
X101107200Y-43314762D01*
X101107200Y-43314762D02*
X101154819Y-43410000D01*
X101154819Y-43410000D02*
X101154819Y-43552857D01*
X100773866Y-42790952D02*
X100773866Y-42029048D01*
X101107200Y-41600476D02*
X101154819Y-41505238D01*
X101154819Y-41505238D02*
X101154819Y-41314762D01*
X101154819Y-41314762D02*
X101107200Y-41219524D01*
X101107200Y-41219524D02*
X101011961Y-41171905D01*
X101011961Y-41171905D02*
X100964342Y-41171905D01*
X100964342Y-41171905D02*
X100869104Y-41219524D01*
X100869104Y-41219524D02*
X100821485Y-41314762D01*
X100821485Y-41314762D02*
X100821485Y-41457619D01*
X100821485Y-41457619D02*
X100773866Y-41552857D01*
X100773866Y-41552857D02*
X100678628Y-41600476D01*
X100678628Y-41600476D02*
X100631009Y-41600476D01*
X100631009Y-41600476D02*
X100535771Y-41552857D01*
X100535771Y-41552857D02*
X100488152Y-41457619D01*
X100488152Y-41457619D02*
X100488152Y-41314762D01*
X100488152Y-41314762D02*
X100535771Y-41219524D01*
X101154819Y-40838571D02*
X100488152Y-40314762D01*
X100488152Y-40838571D02*
X101154819Y-40314762D01*
X101154819Y-39410000D02*
X101154819Y-39981428D01*
X101154819Y-39695714D02*
X100154819Y-39695714D01*
X100154819Y-39695714D02*
X100297676Y-39790952D01*
X100297676Y-39790952D02*
X100392914Y-39886190D01*
X100392914Y-39886190D02*
X100440533Y-39981428D01*
X100250057Y-39029047D02*
X100202438Y-38981428D01*
X100202438Y-38981428D02*
X100154819Y-38886190D01*
X100154819Y-38886190D02*
X100154819Y-38648095D01*
X100154819Y-38648095D02*
X100202438Y-38552857D01*
X100202438Y-38552857D02*
X100250057Y-38505238D01*
X100250057Y-38505238D02*
X100345295Y-38457619D01*
X100345295Y-38457619D02*
X100440533Y-38457619D01*
X100440533Y-38457619D02*
X100583390Y-38505238D01*
X100583390Y-38505238D02*
X101154819Y-39076666D01*
X101154819Y-39076666D02*
X101154819Y-38457619D01*
X100154819Y-37600476D02*
X100154819Y-37790952D01*
X100154819Y-37790952D02*
X100202438Y-37886190D01*
X100202438Y-37886190D02*
X100250057Y-37933809D01*
X100250057Y-37933809D02*
X100392914Y-38029047D01*
X100392914Y-38029047D02*
X100583390Y-38076666D01*
X100583390Y-38076666D02*
X100964342Y-38076666D01*
X100964342Y-38076666D02*
X101059580Y-38029047D01*
X101059580Y-38029047D02*
X101107200Y-37981428D01*
X101107200Y-37981428D02*
X101154819Y-37886190D01*
X101154819Y-37886190D02*
X101154819Y-37695714D01*
X101154819Y-37695714D02*
X101107200Y-37600476D01*
X101107200Y-37600476D02*
X101059580Y-37552857D01*
X101059580Y-37552857D02*
X100964342Y-37505238D01*
X100964342Y-37505238D02*
X100726247Y-37505238D01*
X100726247Y-37505238D02*
X100631009Y-37552857D01*
X100631009Y-37552857D02*
X100583390Y-37600476D01*
X100583390Y-37600476D02*
X100535771Y-37695714D01*
X100535771Y-37695714D02*
X100535771Y-37886190D01*
X100535771Y-37886190D02*
X100583390Y-37981428D01*
X100583390Y-37981428D02*
X100631009Y-38029047D01*
X100631009Y-38029047D02*
X100726247Y-38076666D01*
X100250057Y-37124285D02*
X100202438Y-37076666D01*
X100202438Y-37076666D02*
X100154819Y-36981428D01*
X100154819Y-36981428D02*
X100154819Y-36743333D01*
X100154819Y-36743333D02*
X100202438Y-36648095D01*
X100202438Y-36648095D02*
X100250057Y-36600476D01*
X100250057Y-36600476D02*
X100345295Y-36552857D01*
X100345295Y-36552857D02*
X100440533Y-36552857D01*
X100440533Y-36552857D02*
X100583390Y-36600476D01*
X100583390Y-36600476D02*
X101154819Y-37171904D01*
X101154819Y-37171904D02*
X101154819Y-36552857D01*
X61012295Y-40484761D02*
X61659914Y-40484761D01*
X61659914Y-40484761D02*
X61736104Y-40446666D01*
X61736104Y-40446666D02*
X61774200Y-40408571D01*
X61774200Y-40408571D02*
X61812295Y-40332380D01*
X61812295Y-40332380D02*
X61812295Y-40179999D01*
X61812295Y-40179999D02*
X61774200Y-40103809D01*
X61774200Y-40103809D02*
X61736104Y-40065714D01*
X61736104Y-40065714D02*
X61659914Y-40027618D01*
X61659914Y-40027618D02*
X61012295Y-40027618D01*
X61774200Y-39684762D02*
X61812295Y-39570476D01*
X61812295Y-39570476D02*
X61812295Y-39380000D01*
X61812295Y-39380000D02*
X61774200Y-39303809D01*
X61774200Y-39303809D02*
X61736104Y-39265714D01*
X61736104Y-39265714D02*
X61659914Y-39227619D01*
X61659914Y-39227619D02*
X61583723Y-39227619D01*
X61583723Y-39227619D02*
X61507533Y-39265714D01*
X61507533Y-39265714D02*
X61469438Y-39303809D01*
X61469438Y-39303809D02*
X61431342Y-39380000D01*
X61431342Y-39380000D02*
X61393247Y-39532381D01*
X61393247Y-39532381D02*
X61355152Y-39608571D01*
X61355152Y-39608571D02*
X61317057Y-39646666D01*
X61317057Y-39646666D02*
X61240866Y-39684762D01*
X61240866Y-39684762D02*
X61164676Y-39684762D01*
X61164676Y-39684762D02*
X61088485Y-39646666D01*
X61088485Y-39646666D02*
X61050390Y-39608571D01*
X61050390Y-39608571D02*
X61012295Y-39532381D01*
X61012295Y-39532381D02*
X61012295Y-39341904D01*
X61012295Y-39341904D02*
X61050390Y-39227619D01*
X61393247Y-38618095D02*
X61431342Y-38503809D01*
X61431342Y-38503809D02*
X61469438Y-38465714D01*
X61469438Y-38465714D02*
X61545628Y-38427618D01*
X61545628Y-38427618D02*
X61659914Y-38427618D01*
X61659914Y-38427618D02*
X61736104Y-38465714D01*
X61736104Y-38465714D02*
X61774200Y-38503809D01*
X61774200Y-38503809D02*
X61812295Y-38579999D01*
X61812295Y-38579999D02*
X61812295Y-38884761D01*
X61812295Y-38884761D02*
X61012295Y-38884761D01*
X61012295Y-38884761D02*
X61012295Y-38618095D01*
X61012295Y-38618095D02*
X61050390Y-38541904D01*
X61050390Y-38541904D02*
X61088485Y-38503809D01*
X61088485Y-38503809D02*
X61164676Y-38465714D01*
X61164676Y-38465714D02*
X61240866Y-38465714D01*
X61240866Y-38465714D02*
X61317057Y-38503809D01*
X61317057Y-38503809D02*
X61355152Y-38541904D01*
X61355152Y-38541904D02*
X61393247Y-38618095D01*
X61393247Y-38618095D02*
X61393247Y-38884761D01*
X61507533Y-38084761D02*
X61507533Y-37475238D01*
X61736104Y-36637142D02*
X61774200Y-36675238D01*
X61774200Y-36675238D02*
X61812295Y-36789523D01*
X61812295Y-36789523D02*
X61812295Y-36865714D01*
X61812295Y-36865714D02*
X61774200Y-36980000D01*
X61774200Y-36980000D02*
X61698009Y-37056190D01*
X61698009Y-37056190D02*
X61621819Y-37094285D01*
X61621819Y-37094285D02*
X61469438Y-37132381D01*
X61469438Y-37132381D02*
X61355152Y-37132381D01*
X61355152Y-37132381D02*
X61202771Y-37094285D01*
X61202771Y-37094285D02*
X61126580Y-37056190D01*
X61126580Y-37056190D02*
X61050390Y-36980000D01*
X61050390Y-36980000D02*
X61012295Y-36865714D01*
X61012295Y-36865714D02*
X61012295Y-36789523D01*
X61012295Y-36789523D02*
X61050390Y-36675238D01*
X61050390Y-36675238D02*
X61088485Y-36637142D01*
X67316664Y-38604200D02*
X67392855Y-38642295D01*
X67392855Y-38642295D02*
X67545236Y-38642295D01*
X67545236Y-38642295D02*
X67621426Y-38604200D01*
X67621426Y-38604200D02*
X67659522Y-38528009D01*
X67659522Y-38528009D02*
X67659522Y-38489914D01*
X67659522Y-38489914D02*
X67621426Y-38413723D01*
X67621426Y-38413723D02*
X67545236Y-38375628D01*
X67545236Y-38375628D02*
X67430950Y-38375628D01*
X67430950Y-38375628D02*
X67354760Y-38337533D01*
X67354760Y-38337533D02*
X67316664Y-38261342D01*
X67316664Y-38261342D02*
X67316664Y-38223247D01*
X67316664Y-38223247D02*
X67354760Y-38147057D01*
X67354760Y-38147057D02*
X67430950Y-38108961D01*
X67430950Y-38108961D02*
X67545236Y-38108961D01*
X67545236Y-38108961D02*
X67621426Y-38147057D01*
X68345236Y-38108961D02*
X68345236Y-38642295D01*
X68002379Y-38108961D02*
X68002379Y-38528009D01*
X68002379Y-38528009D02*
X68040474Y-38604200D01*
X68040474Y-38604200D02*
X68116664Y-38642295D01*
X68116664Y-38642295D02*
X68230950Y-38642295D01*
X68230950Y-38642295D02*
X68307141Y-38604200D01*
X68307141Y-38604200D02*
X68345236Y-38566104D01*
X68726189Y-38108961D02*
X68726189Y-38908961D01*
X68726189Y-38147057D02*
X68802379Y-38108961D01*
X68802379Y-38108961D02*
X68954760Y-38108961D01*
X68954760Y-38108961D02*
X69030951Y-38147057D01*
X69030951Y-38147057D02*
X69069046Y-38185152D01*
X69069046Y-38185152D02*
X69107141Y-38261342D01*
X69107141Y-38261342D02*
X69107141Y-38489914D01*
X69107141Y-38489914D02*
X69069046Y-38566104D01*
X69069046Y-38566104D02*
X69030951Y-38604200D01*
X69030951Y-38604200D02*
X68954760Y-38642295D01*
X68954760Y-38642295D02*
X68802379Y-38642295D01*
X68802379Y-38642295D02*
X68726189Y-38604200D01*
X69754761Y-38604200D02*
X69678570Y-38642295D01*
X69678570Y-38642295D02*
X69526189Y-38642295D01*
X69526189Y-38642295D02*
X69449999Y-38604200D01*
X69449999Y-38604200D02*
X69411903Y-38528009D01*
X69411903Y-38528009D02*
X69411903Y-38223247D01*
X69411903Y-38223247D02*
X69449999Y-38147057D01*
X69449999Y-38147057D02*
X69526189Y-38108961D01*
X69526189Y-38108961D02*
X69678570Y-38108961D01*
X69678570Y-38108961D02*
X69754761Y-38147057D01*
X69754761Y-38147057D02*
X69792856Y-38223247D01*
X69792856Y-38223247D02*
X69792856Y-38299438D01*
X69792856Y-38299438D02*
X69411903Y-38375628D01*
X70135713Y-38642295D02*
X70135713Y-38108961D01*
X70135713Y-38261342D02*
X70173808Y-38185152D01*
X70173808Y-38185152D02*
X70211903Y-38147057D01*
X70211903Y-38147057D02*
X70288094Y-38108961D01*
X70288094Y-38108961D02*
X70364284Y-38108961D01*
X70630951Y-38642295D02*
X70630951Y-38108961D01*
X70630951Y-38185152D02*
X70669046Y-38147057D01*
X70669046Y-38147057D02*
X70745236Y-38108961D01*
X70745236Y-38108961D02*
X70859522Y-38108961D01*
X70859522Y-38108961D02*
X70935713Y-38147057D01*
X70935713Y-38147057D02*
X70973808Y-38223247D01*
X70973808Y-38223247D02*
X70973808Y-38642295D01*
X70973808Y-38223247D02*
X71011903Y-38147057D01*
X71011903Y-38147057D02*
X71088094Y-38108961D01*
X71088094Y-38108961D02*
X71202379Y-38108961D01*
X71202379Y-38108961D02*
X71278570Y-38147057D01*
X71278570Y-38147057D02*
X71316665Y-38223247D01*
X71316665Y-38223247D02*
X71316665Y-38642295D01*
X71697618Y-38642295D02*
X71697618Y-38108961D01*
X71697618Y-37842295D02*
X71659522Y-37880390D01*
X71659522Y-37880390D02*
X71697618Y-37918485D01*
X71697618Y-37918485D02*
X71735713Y-37880390D01*
X71735713Y-37880390D02*
X71697618Y-37842295D01*
X71697618Y-37842295D02*
X71697618Y-37918485D01*
X72078570Y-38108961D02*
X72078570Y-38642295D01*
X72078570Y-38185152D02*
X72116665Y-38147057D01*
X72116665Y-38147057D02*
X72192855Y-38108961D01*
X72192855Y-38108961D02*
X72307141Y-38108961D01*
X72307141Y-38108961D02*
X72383332Y-38147057D01*
X72383332Y-38147057D02*
X72421427Y-38223247D01*
X72421427Y-38223247D02*
X72421427Y-38642295D01*
X72802380Y-38642295D02*
X72802380Y-38108961D01*
X72802380Y-37842295D02*
X72764284Y-37880390D01*
X72764284Y-37880390D02*
X72802380Y-37918485D01*
X72802380Y-37918485D02*
X72840475Y-37880390D01*
X72840475Y-37880390D02*
X72802380Y-37842295D01*
X72802380Y-37842295D02*
X72802380Y-37918485D01*
X74364284Y-37804200D02*
X73678570Y-38832771D01*
X75240475Y-38108961D02*
X75240475Y-38908961D01*
X75240475Y-38147057D02*
X75316665Y-38108961D01*
X75316665Y-38108961D02*
X75469046Y-38108961D01*
X75469046Y-38108961D02*
X75545237Y-38147057D01*
X75545237Y-38147057D02*
X75583332Y-38185152D01*
X75583332Y-38185152D02*
X75621427Y-38261342D01*
X75621427Y-38261342D02*
X75621427Y-38489914D01*
X75621427Y-38489914D02*
X75583332Y-38566104D01*
X75583332Y-38566104D02*
X75545237Y-38604200D01*
X75545237Y-38604200D02*
X75469046Y-38642295D01*
X75469046Y-38642295D02*
X75316665Y-38642295D01*
X75316665Y-38642295D02*
X75240475Y-38604200D01*
X75964285Y-38642295D02*
X75964285Y-38108961D01*
X75964285Y-38261342D02*
X76002380Y-38185152D01*
X76002380Y-38185152D02*
X76040475Y-38147057D01*
X76040475Y-38147057D02*
X76116666Y-38108961D01*
X76116666Y-38108961D02*
X76192856Y-38108961D01*
X76573808Y-38642295D02*
X76497618Y-38604200D01*
X76497618Y-38604200D02*
X76459523Y-38566104D01*
X76459523Y-38566104D02*
X76421427Y-38489914D01*
X76421427Y-38489914D02*
X76421427Y-38261342D01*
X76421427Y-38261342D02*
X76459523Y-38185152D01*
X76459523Y-38185152D02*
X76497618Y-38147057D01*
X76497618Y-38147057D02*
X76573808Y-38108961D01*
X76573808Y-38108961D02*
X76688094Y-38108961D01*
X76688094Y-38108961D02*
X76764285Y-38147057D01*
X76764285Y-38147057D02*
X76802380Y-38185152D01*
X76802380Y-38185152D02*
X76840475Y-38261342D01*
X76840475Y-38261342D02*
X76840475Y-38489914D01*
X76840475Y-38489914D02*
X76802380Y-38566104D01*
X76802380Y-38566104D02*
X76764285Y-38604200D01*
X76764285Y-38604200D02*
X76688094Y-38642295D01*
X76688094Y-38642295D02*
X76573808Y-38642295D01*
X77792857Y-38642295D02*
X77792857Y-38108961D01*
X77792857Y-38185152D02*
X77830952Y-38147057D01*
X77830952Y-38147057D02*
X77907142Y-38108961D01*
X77907142Y-38108961D02*
X78021428Y-38108961D01*
X78021428Y-38108961D02*
X78097619Y-38147057D01*
X78097619Y-38147057D02*
X78135714Y-38223247D01*
X78135714Y-38223247D02*
X78135714Y-38642295D01*
X78135714Y-38223247D02*
X78173809Y-38147057D01*
X78173809Y-38147057D02*
X78250000Y-38108961D01*
X78250000Y-38108961D02*
X78364285Y-38108961D01*
X78364285Y-38108961D02*
X78440476Y-38147057D01*
X78440476Y-38147057D02*
X78478571Y-38223247D01*
X78478571Y-38223247D02*
X78478571Y-38642295D01*
X78859524Y-38642295D02*
X78859524Y-38108961D01*
X78859524Y-37842295D02*
X78821428Y-37880390D01*
X78821428Y-37880390D02*
X78859524Y-37918485D01*
X78859524Y-37918485D02*
X78897619Y-37880390D01*
X78897619Y-37880390D02*
X78859524Y-37842295D01*
X78859524Y-37842295D02*
X78859524Y-37918485D01*
X79583333Y-38604200D02*
X79507142Y-38642295D01*
X79507142Y-38642295D02*
X79354761Y-38642295D01*
X79354761Y-38642295D02*
X79278571Y-38604200D01*
X79278571Y-38604200D02*
X79240476Y-38566104D01*
X79240476Y-38566104D02*
X79202380Y-38489914D01*
X79202380Y-38489914D02*
X79202380Y-38261342D01*
X79202380Y-38261342D02*
X79240476Y-38185152D01*
X79240476Y-38185152D02*
X79278571Y-38147057D01*
X79278571Y-38147057D02*
X79354761Y-38108961D01*
X79354761Y-38108961D02*
X79507142Y-38108961D01*
X79507142Y-38108961D02*
X79583333Y-38147057D01*
X79926190Y-38642295D02*
X79926190Y-38108961D01*
X79926190Y-38261342D02*
X79964285Y-38185152D01*
X79964285Y-38185152D02*
X80002380Y-38147057D01*
X80002380Y-38147057D02*
X80078571Y-38108961D01*
X80078571Y-38108961D02*
X80154761Y-38108961D01*
X80535713Y-38642295D02*
X80459523Y-38604200D01*
X80459523Y-38604200D02*
X80421428Y-38566104D01*
X80421428Y-38566104D02*
X80383332Y-38489914D01*
X80383332Y-38489914D02*
X80383332Y-38261342D01*
X80383332Y-38261342D02*
X80421428Y-38185152D01*
X80421428Y-38185152D02*
X80459523Y-38147057D01*
X80459523Y-38147057D02*
X80535713Y-38108961D01*
X80535713Y-38108961D02*
X80649999Y-38108961D01*
X80649999Y-38108961D02*
X80726190Y-38147057D01*
X80726190Y-38147057D02*
X80764285Y-38185152D01*
X80764285Y-38185152D02*
X80802380Y-38261342D01*
X80802380Y-38261342D02*
X80802380Y-38489914D01*
X80802380Y-38489914D02*
X80764285Y-38566104D01*
X80764285Y-38566104D02*
X80726190Y-38604200D01*
X80726190Y-38604200D02*
X80649999Y-38642295D01*
X80649999Y-38642295D02*
X80535713Y-38642295D01*
X82326190Y-37804200D02*
X81640476Y-38832771D01*
X83202381Y-38108961D02*
X83202381Y-38642295D01*
X83202381Y-38185152D02*
X83240476Y-38147057D01*
X83240476Y-38147057D02*
X83316666Y-38108961D01*
X83316666Y-38108961D02*
X83430952Y-38108961D01*
X83430952Y-38108961D02*
X83507143Y-38147057D01*
X83507143Y-38147057D02*
X83545238Y-38223247D01*
X83545238Y-38223247D02*
X83545238Y-38642295D01*
X83926191Y-38642295D02*
X83926191Y-38108961D01*
X83926191Y-38261342D02*
X83964286Y-38185152D01*
X83964286Y-38185152D02*
X84002381Y-38147057D01*
X84002381Y-38147057D02*
X84078572Y-38108961D01*
X84078572Y-38108961D02*
X84154762Y-38108961D01*
X84307143Y-38108961D02*
X84611905Y-38108961D01*
X84421429Y-38642295D02*
X84421429Y-37956580D01*
X84421429Y-37956580D02*
X84459524Y-37880390D01*
X84459524Y-37880390D02*
X84535714Y-37842295D01*
X84535714Y-37842295D02*
X84611905Y-37842295D01*
X85259524Y-37842295D02*
X84878572Y-37842295D01*
X84878572Y-37842295D02*
X84840476Y-38223247D01*
X84840476Y-38223247D02*
X84878572Y-38185152D01*
X84878572Y-38185152D02*
X84954762Y-38147057D01*
X84954762Y-38147057D02*
X85145238Y-38147057D01*
X85145238Y-38147057D02*
X85221429Y-38185152D01*
X85221429Y-38185152D02*
X85259524Y-38223247D01*
X85259524Y-38223247D02*
X85297619Y-38299438D01*
X85297619Y-38299438D02*
X85297619Y-38489914D01*
X85297619Y-38489914D02*
X85259524Y-38566104D01*
X85259524Y-38566104D02*
X85221429Y-38604200D01*
X85221429Y-38604200D02*
X85145238Y-38642295D01*
X85145238Y-38642295D02*
X84954762Y-38642295D01*
X84954762Y-38642295D02*
X84878572Y-38604200D01*
X84878572Y-38604200D02*
X84840476Y-38566104D01*
X85602381Y-37918485D02*
X85640477Y-37880390D01*
X85640477Y-37880390D02*
X85716667Y-37842295D01*
X85716667Y-37842295D02*
X85907143Y-37842295D01*
X85907143Y-37842295D02*
X85983334Y-37880390D01*
X85983334Y-37880390D02*
X86021429Y-37918485D01*
X86021429Y-37918485D02*
X86059524Y-37994676D01*
X86059524Y-37994676D02*
X86059524Y-38070866D01*
X86059524Y-38070866D02*
X86021429Y-38185152D01*
X86021429Y-38185152D02*
X85564286Y-38642295D01*
X85564286Y-38642295D02*
X86059524Y-38642295D01*
X86516667Y-38185152D02*
X86440477Y-38147057D01*
X86440477Y-38147057D02*
X86402382Y-38108961D01*
X86402382Y-38108961D02*
X86364286Y-38032771D01*
X86364286Y-38032771D02*
X86364286Y-37994676D01*
X86364286Y-37994676D02*
X86402382Y-37918485D01*
X86402382Y-37918485D02*
X86440477Y-37880390D01*
X86440477Y-37880390D02*
X86516667Y-37842295D01*
X86516667Y-37842295D02*
X86669048Y-37842295D01*
X86669048Y-37842295D02*
X86745239Y-37880390D01*
X86745239Y-37880390D02*
X86783334Y-37918485D01*
X86783334Y-37918485D02*
X86821429Y-37994676D01*
X86821429Y-37994676D02*
X86821429Y-38032771D01*
X86821429Y-38032771D02*
X86783334Y-38108961D01*
X86783334Y-38108961D02*
X86745239Y-38147057D01*
X86745239Y-38147057D02*
X86669048Y-38185152D01*
X86669048Y-38185152D02*
X86516667Y-38185152D01*
X86516667Y-38185152D02*
X86440477Y-38223247D01*
X86440477Y-38223247D02*
X86402382Y-38261342D01*
X86402382Y-38261342D02*
X86364286Y-38337533D01*
X86364286Y-38337533D02*
X86364286Y-38489914D01*
X86364286Y-38489914D02*
X86402382Y-38566104D01*
X86402382Y-38566104D02*
X86440477Y-38604200D01*
X86440477Y-38604200D02*
X86516667Y-38642295D01*
X86516667Y-38642295D02*
X86669048Y-38642295D01*
X86669048Y-38642295D02*
X86745239Y-38604200D01*
X86745239Y-38604200D02*
X86783334Y-38566104D01*
X86783334Y-38566104D02*
X86821429Y-38489914D01*
X86821429Y-38489914D02*
X86821429Y-38337533D01*
X86821429Y-38337533D02*
X86783334Y-38261342D01*
X86783334Y-38261342D02*
X86745239Y-38223247D01*
X86745239Y-38223247D02*
X86669048Y-38185152D01*
X87316668Y-37842295D02*
X87392858Y-37842295D01*
X87392858Y-37842295D02*
X87469049Y-37880390D01*
X87469049Y-37880390D02*
X87507144Y-37918485D01*
X87507144Y-37918485D02*
X87545239Y-37994676D01*
X87545239Y-37994676D02*
X87583334Y-38147057D01*
X87583334Y-38147057D02*
X87583334Y-38337533D01*
X87583334Y-38337533D02*
X87545239Y-38489914D01*
X87545239Y-38489914D02*
X87507144Y-38566104D01*
X87507144Y-38566104D02*
X87469049Y-38604200D01*
X87469049Y-38604200D02*
X87392858Y-38642295D01*
X87392858Y-38642295D02*
X87316668Y-38642295D01*
X87316668Y-38642295D02*
X87240477Y-38604200D01*
X87240477Y-38604200D02*
X87202382Y-38566104D01*
X87202382Y-38566104D02*
X87164287Y-38489914D01*
X87164287Y-38489914D02*
X87126191Y-38337533D01*
X87126191Y-38337533D02*
X87126191Y-38147057D01*
X87126191Y-38147057D02*
X87164287Y-37994676D01*
X87164287Y-37994676D02*
X87202382Y-37918485D01*
X87202382Y-37918485D02*
X87240477Y-37880390D01*
X87240477Y-37880390D02*
X87316668Y-37842295D01*
D11*
%TO.C,J4*%
X106270000Y-42810000D02*
X106270000Y-42930000D01*
X106270000Y-42930000D02*
X108930000Y-42930000D01*
X107600000Y-40270000D02*
X108930000Y-40270000D01*
X108930000Y-40270000D02*
X108930000Y-41600000D01*
X108930000Y-42810000D02*
X108930000Y-42930000D01*
%TO.C,R2*%
X61715095Y-28249359D02*
G75*
G02*
X61812133Y-26800000I-320095J749359D01*
G01*
%TO.C,R1*%
X67115095Y-28249359D02*
G75*
G02*
X67212133Y-26800000I-320095J749359D01*
G01*
%TO.C,J1*%
X103790000Y-26340000D02*
X103790000Y-32460000D01*
X103790000Y-32460000D02*
X108510000Y-32460000D01*
X104400000Y-26950000D02*
X104400000Y-31850000D01*
X104400000Y-29300000D02*
X104900000Y-29300000D01*
X104400000Y-29400000D02*
X104900000Y-29400000D01*
X104400000Y-31850000D02*
X107900000Y-31850000D01*
X104900000Y-29300000D02*
X104900000Y-29500000D01*
X104900000Y-29500000D02*
X104400000Y-29500000D01*
X105900000Y-26340000D02*
X105900000Y-26950000D01*
X105900000Y-32460000D02*
X105900000Y-31850000D01*
X107200000Y-26340000D02*
X107200000Y-26950000D01*
X107200000Y-32460000D02*
X107200000Y-31850000D01*
X107900000Y-26950000D02*
X104400000Y-26950000D01*
X107900000Y-28900000D02*
X107900000Y-26950000D01*
X107900000Y-29900000D02*
X108510000Y-29900000D01*
X107900000Y-31850000D02*
X107900000Y-29900000D01*
X108510000Y-26340000D02*
X103790000Y-26340000D01*
X108510000Y-28100000D02*
X108710000Y-28100000D01*
X108510000Y-28900000D02*
X107900000Y-28900000D01*
X108510000Y-32460000D02*
X108510000Y-26340000D01*
X108610000Y-28100000D02*
X108610000Y-27800000D01*
X108710000Y-27800000D02*
X108510000Y-27800000D01*
X108710000Y-28100000D02*
X108710000Y-27800000D01*
X108810000Y-26040000D02*
X107560000Y-26040000D01*
X108810000Y-27290000D02*
X108810000Y-26040000D01*
%TO.C,SW1*%
X98100000Y-33050000D02*
X99600000Y-33050000D01*
X102100000Y-31800000D02*
X102100000Y-27300000D01*
X95600000Y-27300000D02*
X95600000Y-31800000D01*
X99600000Y-26050000D02*
X98100000Y-26050000D01*
%TO.C,J3*%
X93550000Y-26830000D02*
X93550000Y-24170000D01*
X85870000Y-26830000D02*
X93550000Y-26830000D01*
X85870000Y-26830000D02*
X85870000Y-24170000D01*
X85870000Y-24170000D02*
X93550000Y-24170000D01*
X84600000Y-26830000D02*
X83270000Y-26830000D01*
X83270000Y-26830000D02*
X83270000Y-25500000D01*
D12*
%TO.C,U1*%
X94846000Y-34936000D02*
X95227000Y-34936000D01*
D11*
X106100000Y-35190000D02*
X106100000Y-46790000D01*
X95100000Y-35190000D02*
X106100000Y-35190000D01*
D12*
X94846000Y-35317000D02*
X94846000Y-34936000D01*
D11*
X106100000Y-46790000D02*
X95100000Y-46790000D01*
X95100000Y-46790000D02*
X95100000Y-35190000D01*
D13*
%TO.C,U2*%
X92690000Y-47170000D02*
X92690000Y-29390000D01*
X92690000Y-29390000D02*
X62210000Y-29390000D01*
D14*
X63226000Y-42090000D02*
X59650000Y-42090000D01*
X63226000Y-34724000D02*
X63226000Y-42090000D01*
D13*
X62210000Y-47170000D02*
X92690000Y-47170000D01*
X62210000Y-29390000D02*
X59670000Y-29390000D01*
D14*
X59750000Y-34724000D02*
X63226000Y-34724000D01*
D13*
X59670000Y-47170000D02*
X62210000Y-47170000D01*
X59670000Y-29390000D02*
X59670000Y-47170000D01*
%TD*%
D15*
%TO.C,U2*%
X60940000Y-45900000D03*
X60940000Y-30660000D03*
X63480000Y-30660000D03*
X66020000Y-30660000D03*
X68560000Y-30660000D03*
X71100000Y-30660000D03*
X73640000Y-30660000D03*
X76180000Y-30660000D03*
X78720000Y-30660000D03*
X81260000Y-30660000D03*
X83800000Y-30660000D03*
X86340000Y-30660000D03*
X88880000Y-30660000D03*
X91420000Y-30660000D03*
X91420000Y-45900000D03*
X88880000Y-45900000D03*
X86340000Y-45900000D03*
X83800000Y-45900000D03*
X81260000Y-45900000D03*
X78720000Y-45900000D03*
X76180000Y-45900000D03*
X73640000Y-45900000D03*
X71100000Y-45900000D03*
X68560000Y-45900000D03*
X66020000Y-45900000D03*
X63480000Y-45900000D03*
%TD*%
M02*
