%TF.GenerationSoftware,KiCad,Pcbnew,8.0.6-8.0.6-0~ubuntu24.04.1*%
%TF.CreationDate,2025-04-10T23:01:09-04:00*%
%TF.ProjectId,super-mini-mesh-kicad,73757065-722d-46d6-996e-692d6d657368,rev?*%
%TF.SameCoordinates,Original*%
%TF.FileFunction,Legend,Bot*%
%TF.FilePolarity,Positive*%
%FSLAX46Y46*%
G04 Gerber Fmt 4.6, Leading zero omitted, Abs format (unit mm)*
G04 Created by KiCad (PCBNEW 8.0.6-8.0.6-0~ubuntu24.04.1) date 2025-04-10 23:01:09*
%MOMM*%
%LPD*%
G01*
G04 APERTURE LIST*
%ADD10C,0.150000*%
%ADD11C,0.120000*%
%ADD12C,0.381000*%
%ADD13C,1.752600*%
G04 APERTURE END LIST*
D10*
X73591792Y-27632390D02*
X73667982Y-27594295D01*
X73667982Y-27594295D02*
X73782268Y-27594295D01*
X73782268Y-27594295D02*
X73896554Y-27632390D01*
X73896554Y-27632390D02*
X73972744Y-27708580D01*
X73972744Y-27708580D02*
X74010839Y-27784771D01*
X74010839Y-27784771D02*
X74048935Y-27937152D01*
X74048935Y-27937152D02*
X74048935Y-28051438D01*
X74048935Y-28051438D02*
X74010839Y-28203819D01*
X74010839Y-28203819D02*
X73972744Y-28280009D01*
X73972744Y-28280009D02*
X73896554Y-28356200D01*
X73896554Y-28356200D02*
X73782268Y-28394295D01*
X73782268Y-28394295D02*
X73706077Y-28394295D01*
X73706077Y-28394295D02*
X73591792Y-28356200D01*
X73591792Y-28356200D02*
X73553696Y-28318104D01*
X73553696Y-28318104D02*
X73553696Y-28051438D01*
X73553696Y-28051438D02*
X73706077Y-28051438D01*
X73210839Y-28394295D02*
X73210839Y-27594295D01*
X73210839Y-27594295D02*
X72753696Y-28394295D01*
X72753696Y-28394295D02*
X72753696Y-27594295D01*
X72372744Y-28394295D02*
X72372744Y-27594295D01*
X72372744Y-27594295D02*
X72182268Y-27594295D01*
X72182268Y-27594295D02*
X72067982Y-27632390D01*
X72067982Y-27632390D02*
X71991792Y-27708580D01*
X71991792Y-27708580D02*
X71953697Y-27784771D01*
X71953697Y-27784771D02*
X71915601Y-27937152D01*
X71915601Y-27937152D02*
X71915601Y-28051438D01*
X71915601Y-28051438D02*
X71953697Y-28203819D01*
X71953697Y-28203819D02*
X71991792Y-28280009D01*
X71991792Y-28280009D02*
X72067982Y-28356200D01*
X72067982Y-28356200D02*
X72182268Y-28394295D01*
X72182268Y-28394295D02*
X72372744Y-28394295D01*
X76348935Y-27670485D02*
X76310839Y-27632390D01*
X76310839Y-27632390D02*
X76234649Y-27594295D01*
X76234649Y-27594295D02*
X76044173Y-27594295D01*
X76044173Y-27594295D02*
X75967982Y-27632390D01*
X75967982Y-27632390D02*
X75929887Y-27670485D01*
X75929887Y-27670485D02*
X75891792Y-27746676D01*
X75891792Y-27746676D02*
X75891792Y-27822866D01*
X75891792Y-27822866D02*
X75929887Y-27937152D01*
X75929887Y-27937152D02*
X76387030Y-28394295D01*
X76387030Y-28394295D02*
X75891792Y-28394295D01*
X75587030Y-27670485D02*
X75548934Y-27632390D01*
X75548934Y-27632390D02*
X75472744Y-27594295D01*
X75472744Y-27594295D02*
X75282268Y-27594295D01*
X75282268Y-27594295D02*
X75206077Y-27632390D01*
X75206077Y-27632390D02*
X75167982Y-27670485D01*
X75167982Y-27670485D02*
X75129887Y-27746676D01*
X75129887Y-27746676D02*
X75129887Y-27822866D01*
X75129887Y-27822866D02*
X75167982Y-27937152D01*
X75167982Y-27937152D02*
X75625125Y-28394295D01*
X75625125Y-28394295D02*
X75129887Y-28394295D01*
X78848935Y-27670485D02*
X78810839Y-27632390D01*
X78810839Y-27632390D02*
X78734649Y-27594295D01*
X78734649Y-27594295D02*
X78544173Y-27594295D01*
X78544173Y-27594295D02*
X78467982Y-27632390D01*
X78467982Y-27632390D02*
X78429887Y-27670485D01*
X78429887Y-27670485D02*
X78391792Y-27746676D01*
X78391792Y-27746676D02*
X78391792Y-27822866D01*
X78391792Y-27822866D02*
X78429887Y-27937152D01*
X78429887Y-27937152D02*
X78887030Y-28394295D01*
X78887030Y-28394295D02*
X78391792Y-28394295D01*
X77896553Y-27594295D02*
X77820363Y-27594295D01*
X77820363Y-27594295D02*
X77744172Y-27632390D01*
X77744172Y-27632390D02*
X77706077Y-27670485D01*
X77706077Y-27670485D02*
X77667982Y-27746676D01*
X77667982Y-27746676D02*
X77629887Y-27899057D01*
X77629887Y-27899057D02*
X77629887Y-28089533D01*
X77629887Y-28089533D02*
X77667982Y-28241914D01*
X77667982Y-28241914D02*
X77706077Y-28318104D01*
X77706077Y-28318104D02*
X77744172Y-28356200D01*
X77744172Y-28356200D02*
X77820363Y-28394295D01*
X77820363Y-28394295D02*
X77896553Y-28394295D01*
X77896553Y-28394295D02*
X77972744Y-28356200D01*
X77972744Y-28356200D02*
X78010839Y-28318104D01*
X78010839Y-28318104D02*
X78048934Y-28241914D01*
X78048934Y-28241914D02*
X78087030Y-28089533D01*
X78087030Y-28089533D02*
X78087030Y-27899057D01*
X78087030Y-27899057D02*
X78048934Y-27746676D01*
X78048934Y-27746676D02*
X78010839Y-27670485D01*
X78010839Y-27670485D02*
X77972744Y-27632390D01*
X77972744Y-27632390D02*
X77896553Y-27594295D01*
X81287030Y-27594295D02*
X80791792Y-27594295D01*
X80791792Y-27594295D02*
X81058458Y-27899057D01*
X81058458Y-27899057D02*
X80944173Y-27899057D01*
X80944173Y-27899057D02*
X80867982Y-27937152D01*
X80867982Y-27937152D02*
X80829887Y-27975247D01*
X80829887Y-27975247D02*
X80791792Y-28051438D01*
X80791792Y-28051438D02*
X80791792Y-28241914D01*
X80791792Y-28241914D02*
X80829887Y-28318104D01*
X80829887Y-28318104D02*
X80867982Y-28356200D01*
X80867982Y-28356200D02*
X80944173Y-28394295D01*
X80944173Y-28394295D02*
X81172744Y-28394295D01*
X81172744Y-28394295D02*
X81248935Y-28356200D01*
X81248935Y-28356200D02*
X81287030Y-28318104D01*
X80563220Y-27594295D02*
X80296553Y-28394295D01*
X80296553Y-28394295D02*
X80029887Y-27594295D01*
D11*
%TO.C,J2*%
X71750000Y-24170000D02*
X71750000Y-26830000D01*
X71750000Y-24170000D02*
X79430000Y-24170000D01*
X71750000Y-26830000D02*
X79430000Y-26830000D01*
X79430000Y-24170000D02*
X79430000Y-26830000D01*
X82030000Y-25500000D02*
X82030000Y-26830000D01*
X82030000Y-26830000D02*
X80700000Y-26830000D01*
D12*
%TO.C,U2*%
X92690000Y-47170000D02*
X92690000Y-29390000D01*
X92690000Y-29390000D02*
X59670000Y-29390000D01*
X59670000Y-47170000D02*
X92690000Y-47170000D01*
X59670000Y-29390000D02*
X59670000Y-47170000D01*
%TD*%
D13*
%TO.C,U2*%
X60940000Y-45900000D03*
X60940000Y-30660000D03*
X63480000Y-30660000D03*
X66020000Y-30660000D03*
X68560000Y-30660000D03*
X71100000Y-30660000D03*
X73640000Y-30660000D03*
X76180000Y-30660000D03*
X78720000Y-30660000D03*
X81260000Y-30660000D03*
X83800000Y-30660000D03*
X86340000Y-30660000D03*
X88880000Y-30660000D03*
X91420000Y-30660000D03*
X91420000Y-45900000D03*
X88880000Y-45900000D03*
X86340000Y-45900000D03*
X83800000Y-45900000D03*
X81260000Y-45900000D03*
X78720000Y-45900000D03*
X76180000Y-45900000D03*
X73640000Y-45900000D03*
X71100000Y-45900000D03*
X68560000Y-45900000D03*
X66020000Y-45900000D03*
X63480000Y-45900000D03*
%TD*%
M02*
