%TF.GenerationSoftware,KiCad,Pcbnew,8.0.6-8.0.6-0~ubuntu24.04.1*%
%TF.CreationDate,2025-04-10T23:00:57-04:00*%
%TF.ProjectId,super-mini-mesh-kicad,73757065-722d-46d6-996e-692d6d657368,rev?*%
%TF.SameCoordinates,Original*%
%TF.FileFunction,Copper,L1,Top*%
%TF.FilePolarity,Positive*%
%FSLAX46Y46*%
G04 Gerber Fmt 4.6, Leading zero omitted, Abs format (unit mm)*
G04 Created by KiCad (PCBNEW 8.0.6-8.0.6-0~ubuntu24.04.1) date 2025-04-10 23:00:57*
%MOMM*%
%LPD*%
G01*
G04 APERTURE LIST*
G04 Aperture macros list*
%AMRoundRect*
0 Rectangle with rounded corners*
0 $1 Rounding radius*
0 $2 $3 $4 $5 $6 $7 $8 $9 X,Y pos of 4 corners*
0 Add a 4 corners polygon primitive as box body*
4,1,4,$2,$3,$4,$5,$6,$7,$8,$9,$2,$3,0*
0 Add four circle primitives for the rounded corners*
1,1,$1+$1,$2,$3*
1,1,$1+$1,$4,$5*
1,1,$1+$1,$6,$7*
1,1,$1+$1,$8,$9*
0 Add four rect primitives between the rounded corners*
20,1,$1+$1,$2,$3,$4,$5,0*
20,1,$1+$1,$4,$5,$6,$7,0*
20,1,$1+$1,$6,$7,$8,$9,0*
20,1,$1+$1,$8,$9,$2,$3,0*%
G04 Aperture macros list end*
%TA.AperFunction,ComponentPad*%
%ADD10R,1.700000X1.700000*%
%TD*%
%TA.AperFunction,ComponentPad*%
%ADD11C,1.400000*%
%TD*%
%TA.AperFunction,ComponentPad*%
%ADD12O,1.400000X1.400000*%
%TD*%
%TA.AperFunction,ComponentPad*%
%ADD13RoundRect,0.250000X-0.625000X0.350000X-0.625000X-0.350000X0.625000X-0.350000X0.625000X0.350000X0*%
%TD*%
%TA.AperFunction,ComponentPad*%
%ADD14O,1.750000X1.200000*%
%TD*%
%TA.AperFunction,ComponentPad*%
%ADD15C,2.000000*%
%TD*%
%TA.AperFunction,ComponentPad*%
%ADD16O,1.700000X1.700000*%
%TD*%
%TA.AperFunction,SMDPad,CuDef*%
%ADD17RoundRect,0.300000X-0.500000X-0.000010X0.500000X-0.000010X0.500000X0.000010X-0.500000X0.000010X0*%
%TD*%
%TA.AperFunction,ComponentPad*%
%ADD18C,1.752600*%
%TD*%
%TA.AperFunction,ViaPad*%
%ADD19C,0.600000*%
%TD*%
%TA.AperFunction,Conductor*%
%ADD20C,0.700000*%
%TD*%
%TA.AperFunction,Conductor*%
%ADD21C,0.400000*%
%TD*%
G04 APERTURE END LIST*
D10*
%TO.P,J4,1,Pin_1*%
%TO.N,ANT*%
X107600000Y-41600000D03*
%TD*%
D11*
%TO.P,R2,1*%
%TO.N,BAT*%
X61395000Y-27500000D03*
D12*
%TO.P,R2,2*%
%TO.N,BATT_MEASURE*%
X63295000Y-27500000D03*
%TD*%
D11*
%TO.P,R1,1*%
%TO.N,BATT_MEASURE*%
X66795000Y-27500000D03*
D12*
%TO.P,R1,2*%
%TO.N,GND*%
X68695000Y-27500000D03*
%TD*%
D13*
%TO.P,J1,1,Pin_1*%
%TO.N,BAT*%
X106700000Y-28400000D03*
D14*
%TO.P,J1,2,Pin_2*%
%TO.N,GND*%
X106700000Y-30400000D03*
%TD*%
D15*
%TO.P,SW1,1,1*%
%TO.N,MICRO_RST*%
X96600000Y-32800000D03*
X96600000Y-26300000D03*
%TO.P,SW1,2,2*%
%TO.N,GND*%
X101100000Y-32800000D03*
X101100000Y-26300000D03*
%TD*%
D10*
%TO.P,J3,1,Pin_1*%
%TO.N,GND*%
X84600000Y-25500000D03*
D16*
%TO.P,J3,2,Pin_2*%
%TO.N,3V3*%
X87140000Y-25500000D03*
%TO.P,J3,3,Pin_3*%
%TO.N,SCL*%
X89680000Y-25500000D03*
%TO.P,J3,4,Pin_4*%
%TO.N,SDA*%
X92220000Y-25500000D03*
%TD*%
D17*
%TO.P,U1,1,RF_SW1*%
%TO.N,RF_SW1*%
X95400000Y-36520000D03*
%TO.P,U1,2,MISO*%
%TO.N,MISO*%
X95400000Y-37790000D03*
%TO.P,U1,3,MOSI*%
%TO.N,MOSI*%
X95400000Y-39060000D03*
%TO.P,U1,4,SCK*%
%TO.N,SCK*%
X95400000Y-40330000D03*
%TO.P,U1,5,RST*%
%TO.N,LORA_RST*%
X95400000Y-41600000D03*
%TO.P,U1,6,NSS*%
%TO.N,CS*%
X95400000Y-42870000D03*
%TO.P,U1,7,GND1*%
%TO.N,GND*%
X95400000Y-44140000D03*
%TO.P,U1,8,VCC*%
%TO.N,3V3*%
X95400000Y-45410000D03*
%TO.P,U1,9,ANT*%
%TO.N,ANT*%
X105800000Y-41600000D03*
%TO.P,U1,10,GND2*%
%TO.N,GND*%
X105800000Y-40330000D03*
%TO.P,U1,11,BUSY*%
%TO.N,BUSY*%
X105800000Y-39060000D03*
%TO.P,U1,12,DIO1*%
%TO.N,DIO1*%
X105800000Y-37790000D03*
%TD*%
D10*
%TO.P,J2,1,Pin_1*%
%TO.N,3V3*%
X80700000Y-25500000D03*
D16*
%TO.P,J2,2,Pin_2*%
%TO.N,GPS_RX*%
X78160000Y-25500000D03*
%TO.P,J2,3,Pin_3*%
%TO.N,GPS_TX*%
X75620000Y-25500000D03*
%TO.P,J2,4,Pin_4*%
%TO.N,GND*%
X73080000Y-25500000D03*
%TD*%
D18*
%TO.P,U2,26,GND*%
%TO.N,GND*%
X60940000Y-45900000D03*
%TO.P,U2,25,BAT*%
%TO.N,BAT*%
X60940000Y-30660000D03*
%TO.P,U2,24,BAT*%
X63480000Y-30660000D03*
%TO.P,U2,23,GND*%
%TO.N,GND*%
X66020000Y-30660000D03*
%TO.P,U2,22,RST*%
%TO.N,MICRO_RST*%
X68560000Y-30660000D03*
%TO.P,U2,21,VCC*%
%TO.N,3V3*%
X71100000Y-30660000D03*
%TO.P,U2,20,AIN7/P0.31*%
%TO.N,BATT_MEASURE*%
X73640000Y-30660000D03*
%TO.P,U2,19,AIN5/P0.29*%
%TO.N,BUSY*%
X76180000Y-30660000D03*
%TO.P,U2,18,AIN0/P0.02*%
%TO.N,MISO*%
X78720000Y-30660000D03*
%TO.P,U2,17,P1.15*%
%TO.N,MOSI*%
X81260000Y-30660000D03*
%TO.P,U2,16,P1.13*%
%TO.N,CS*%
X83800000Y-30660000D03*
%TO.P,U2,15,P1.11*%
%TO.N,SCK*%
X86340000Y-30660000D03*
%TO.P,U2,14,NFC2/P0.10*%
%TO.N,DIO1*%
X88880000Y-30660000D03*
%TO.P,U2,13,NFC1/P0.09*%
%TO.N,LORA_RST*%
X91420000Y-30660000D03*
%TO.P,U2,12,P1.06*%
%TO.N,unconnected-(U2-P1.06-Pad12)*%
X91420000Y-45900000D03*
%TO.P,U2,11,P1.04*%
%TO.N,SDA*%
X88880000Y-45900000D03*
%TO.P,U2,10,P0.11*%
%TO.N,SCL*%
X86340000Y-45900000D03*
%TO.P,U2,9,P1.00*%
%TO.N,unconnected-(U2-P1.00-Pad9)*%
X83800000Y-45900000D03*
%TO.P,U2,8,P0.24*%
%TO.N,unconnected-(U2-P0.24-Pad8)*%
X81260000Y-45900000D03*
%TO.P,U2,7,P0.22*%
%TO.N,GPS_TX*%
X78720000Y-45900000D03*
%TO.P,U2,6,P0.20*%
%TO.N,GPS_RX*%
X76180000Y-45900000D03*
%TO.P,U2,5,P0.17*%
%TO.N,unconnected-(U2-P0.17-Pad5)*%
X73640000Y-45900000D03*
%TO.P,U2,4,GND*%
%TO.N,GND*%
X71100000Y-45900000D03*
%TO.P,U2,3,GND*%
X68560000Y-45900000D03*
%TO.P,U2,2,RX1/P0.08*%
%TO.N,unconnected-(U2-RX1{slash}P0.08-Pad2)*%
X66020000Y-45900000D03*
%TO.P,U2,1,TX0/P0.06*%
%TO.N,unconnected-(U2-TX0{slash}P0.06-Pad1)*%
X63480000Y-45900000D03*
%TD*%
D19*
%TO.N,SCL*%
X90400000Y-31900000D03*
%TO.N,GPS_RX*%
X97200000Y-29950000D03*
%TO.N,MICRO_RST*%
X68900000Y-32400000D03*
%TO.N,GPS_RX*%
X76800000Y-27683700D03*
X96800000Y-36200000D03*
X77600000Y-36600000D03*
X77100000Y-42900000D03*
%TO.N,GPS_TX*%
X74500000Y-28383700D03*
%TO.N,3V3*%
X86700000Y-29233700D03*
X79700000Y-29300000D03*
X72100000Y-29500000D03*
%TO.N,GPS_TX*%
X102300000Y-31400000D03*
X102000000Y-43300000D03*
X79100000Y-43500000D03*
%TO.N,3V3*%
X71000000Y-44100000D03*
X93600000Y-45400000D03*
%TO.N,CS*%
X83800000Y-41100000D03*
%TO.N,SCL*%
X94900000Y-32300000D03*
X94400000Y-27000000D03*
%TO.N,SDA*%
X98900000Y-36400000D03*
X89400000Y-36900000D03*
X97600000Y-24900000D03*
%TO.N,MISO*%
X78900000Y-37400000D03*
%TO.N,MOSI*%
X81900000Y-39000000D03*
%TO.N,MISO*%
X93800000Y-37800000D03*
%TO.N,MOSI*%
X93800000Y-39000000D03*
%TO.N,SCK*%
X86600000Y-39800000D03*
X93900000Y-40300000D03*
%TO.N,LORA_RST*%
X92100000Y-41500000D03*
X93900000Y-41600000D03*
%TO.N,CS*%
X93900000Y-42900000D03*
%TO.N,DIO1*%
X98800000Y-37700000D03*
X104300000Y-37800000D03*
X88800000Y-33500000D03*
X98200000Y-34700000D03*
%TO.N,BUSY*%
X99600000Y-35500000D03*
X104300000Y-39100000D03*
X99600000Y-39100000D03*
X77200000Y-35500000D03*
%TO.N,GND*%
X96800000Y-44100000D03*
X103300000Y-40400000D03*
X101100000Y-40400000D03*
X101100000Y-44140000D03*
%TO.N,BAT*%
X93900000Y-29100000D03*
X63600000Y-34400000D03*
X93900000Y-34600000D03*
%TO.N,GND*%
X68200000Y-42000000D03*
X66000000Y-41900000D03*
X65000000Y-25700000D03*
X69700000Y-25700000D03*
X101000000Y-30400000D03*
X101000000Y-28200000D03*
X73200000Y-27500000D03*
%TD*%
D20*
%TO.N,ANT*%
X105800000Y-41600000D02*
X107600000Y-41600000D01*
D21*
%TO.N,MICRO_RST*%
X96600000Y-32800000D02*
X96500000Y-32700000D01*
X96500000Y-32700000D02*
X96500000Y-26400000D01*
X96500000Y-26400000D02*
X96600000Y-26300000D01*
%TO.N,SCL*%
X90400000Y-31900000D02*
X90400000Y-34910050D01*
X90400000Y-34910050D02*
X87300000Y-38010050D01*
X87300000Y-38010050D02*
X87300000Y-44940000D01*
X87300000Y-44940000D02*
X86340000Y-45900000D01*
%TO.N,GPS_RX*%
X98000000Y-30750000D02*
X97200000Y-29950000D01*
X98000000Y-30900000D02*
X98000000Y-30750000D01*
%TO.N,MICRO_RST*%
X68560000Y-32060000D02*
X68900000Y-32400000D01*
X68560000Y-30660000D02*
X68560000Y-32060000D01*
%TO.N,BATT_MEASURE*%
X73640000Y-30660000D02*
X73640000Y-29420725D01*
X67895000Y-28600000D02*
X66795000Y-27500000D01*
X73640000Y-29420725D02*
X72819275Y-28600000D01*
X72819275Y-28600000D02*
X67895000Y-28600000D01*
%TO.N,GPS_RX*%
X76800000Y-26860000D02*
X78160000Y-25500000D01*
X76800000Y-27683700D02*
X76800000Y-26860000D01*
X77100000Y-37100000D02*
X77600000Y-36600000D01*
X77100000Y-42900000D02*
X77100000Y-37100000D01*
X96800000Y-34579899D02*
X98000000Y-33379899D01*
X96800000Y-36200000D02*
X96800000Y-34579899D01*
X98000000Y-33379899D02*
X98000000Y-30900000D01*
X76180000Y-43820000D02*
X77100000Y-42900000D01*
X76180000Y-45900000D02*
X76180000Y-43820000D01*
%TO.N,GPS_TX*%
X74500000Y-28383700D02*
X74500000Y-26620000D01*
X74500000Y-26620000D02*
X75620000Y-25500000D01*
D20*
%TO.N,3V3*%
X86700000Y-25940000D02*
X87140000Y-25500000D01*
X86700000Y-29233700D02*
X86700000Y-25940000D01*
X79700000Y-28800000D02*
X79700000Y-29300000D01*
X71100000Y-30500000D02*
X72100000Y-29500000D01*
X71100000Y-30660000D02*
X71100000Y-30500000D01*
D21*
%TO.N,GPS_TX*%
X78720000Y-43880000D02*
X79100000Y-43500000D01*
X102000000Y-43300000D02*
X102200000Y-43100000D01*
X102500000Y-31600000D02*
X102300000Y-31400000D01*
X102500000Y-42300000D02*
X102500000Y-31600000D01*
X78720000Y-45900000D02*
X78720000Y-43880000D01*
X102200000Y-43100000D02*
X102200000Y-42600000D01*
X102200000Y-42600000D02*
X102500000Y-42300000D01*
D20*
%TO.N,3V3*%
X71000000Y-44100000D02*
X71100000Y-44000000D01*
X71100000Y-44000000D02*
X71100000Y-30660000D01*
X94510000Y-45410000D02*
X93610000Y-45410000D01*
X93610000Y-45410000D02*
X93600000Y-45400000D01*
D21*
%TO.N,CS*%
X83800000Y-41100000D02*
X83800000Y-30660000D01*
%TO.N,SCL*%
X95100000Y-32100000D02*
X94900000Y-32300000D01*
X94400000Y-27000000D02*
X95100000Y-27700000D01*
X95100000Y-27700000D02*
X95100000Y-29300000D01*
X95100000Y-29300000D02*
X95100000Y-32100000D01*
X89680000Y-25500000D02*
X89700000Y-25500000D01*
%TO.N,SDA*%
X88880000Y-45900000D02*
X88880000Y-37420000D01*
X98900000Y-36400000D02*
X98900000Y-26200000D01*
X88880000Y-37420000D02*
X89400000Y-36900000D01*
X98900000Y-26200000D02*
X97600000Y-24900000D01*
%TO.N,MISO*%
X78900000Y-37400000D02*
X78720000Y-37220000D01*
X78720000Y-37220000D02*
X78720000Y-30660000D01*
%TO.N,MOSI*%
X81260000Y-37040000D02*
X81260000Y-38360000D01*
X81260000Y-38360000D02*
X81900000Y-39000000D01*
%TO.N,MISO*%
X95400000Y-37790000D02*
X93810000Y-37790000D01*
X93810000Y-37790000D02*
X93800000Y-37800000D01*
%TO.N,MOSI*%
X93860000Y-39060000D02*
X93800000Y-39000000D01*
X95400000Y-39060000D02*
X93860000Y-39060000D01*
X81260000Y-37040000D02*
X81260000Y-30660000D01*
X81200000Y-37100000D02*
X81260000Y-37040000D01*
%TO.N,SCK*%
X86600000Y-39800000D02*
X86340000Y-39540000D01*
X93930000Y-40330000D02*
X93900000Y-40300000D01*
X95400000Y-40330000D02*
X93930000Y-40330000D01*
X86340000Y-39540000D02*
X86340000Y-30660000D01*
%TO.N,LORA_RST*%
X93900000Y-41600000D02*
X94000000Y-41600000D01*
X91420000Y-40820000D02*
X91420000Y-30660000D01*
X92100000Y-41500000D02*
X91420000Y-40820000D01*
X95400000Y-41600000D02*
X93900000Y-41600000D01*
%TO.N,CS*%
X95400000Y-42870000D02*
X93930000Y-42870000D01*
X93930000Y-42870000D02*
X93900000Y-42900000D01*
%TO.N,DIO1*%
X104310000Y-37790000D02*
X104300000Y-37800000D01*
X105800000Y-37790000D02*
X104310000Y-37790000D01*
X88800000Y-33500000D02*
X88800000Y-30740000D01*
X98800000Y-37700000D02*
X98500000Y-37400000D01*
X88800000Y-30740000D02*
X88880000Y-30660000D01*
X98200000Y-37100000D02*
X98200000Y-34700000D01*
X98500000Y-37400000D02*
X98200000Y-37100000D01*
%TO.N,BUSY*%
X99600000Y-39100000D02*
X99600000Y-35500000D01*
X104340000Y-39060000D02*
X104300000Y-39100000D01*
X77200000Y-35500000D02*
X76180000Y-34480000D01*
X105800000Y-39060000D02*
X104340000Y-39060000D01*
X76180000Y-34480000D02*
X76180000Y-30660000D01*
D20*
%TO.N,3V3*%
X95400000Y-45410000D02*
X94510000Y-45410000D01*
%TO.N,GND*%
X96800000Y-44100000D02*
X95440000Y-44100000D01*
X95440000Y-44100000D02*
X95400000Y-44140000D01*
X103370000Y-40330000D02*
X103300000Y-40400000D01*
X105800000Y-40330000D02*
X103370000Y-40330000D01*
X101100000Y-32800000D02*
X101100000Y-40400000D01*
X101100000Y-40400000D02*
X101100000Y-44140000D01*
%TO.N,BAT*%
X63600000Y-30780000D02*
X63480000Y-30660000D01*
X93900000Y-29100000D02*
X93900000Y-34600000D01*
X63600000Y-34400000D02*
X63600000Y-30780000D01*
%TO.N,GND*%
X60940000Y-45900000D02*
X64940000Y-41900000D01*
X64940000Y-41900000D02*
X66000000Y-41900000D01*
X66020000Y-30660000D02*
X66020000Y-41880000D01*
X66020000Y-41880000D02*
X66000000Y-41900000D01*
X68200000Y-42000000D02*
X68200000Y-45540000D01*
X68200000Y-45540000D02*
X68560000Y-45900000D01*
X68695000Y-27500000D02*
X68695000Y-26705000D01*
X68695000Y-26705000D02*
X69700000Y-25700000D01*
X65000000Y-25700000D02*
X65000000Y-29640000D01*
X65000000Y-29640000D02*
X66020000Y-30660000D01*
X101000000Y-28200000D02*
X101000000Y-32700000D01*
X101000000Y-32700000D02*
X101100000Y-32800000D01*
X101000000Y-26400000D02*
X101100000Y-26300000D01*
X101000000Y-28200000D02*
X101000000Y-26400000D01*
X84600000Y-25500000D02*
X84400000Y-25500000D01*
%TO.N,3V3*%
X79700000Y-28800000D02*
X79700000Y-26500000D01*
X79700000Y-26500000D02*
X80700000Y-25500000D01*
%TO.N,GND*%
X73200000Y-27500000D02*
X73200000Y-25620000D01*
X73200000Y-25620000D02*
X73080000Y-25500000D01*
%TO.N,BAT*%
X61395000Y-27500000D02*
X61395000Y-28575000D01*
X61395000Y-28575000D02*
X63480000Y-30660000D01*
%TD*%
M02*
