M48
; DRILL file {KiCad 8.0.6-8.0.6-0~ubuntu24.04.1} date 2025-04-10T23:01:30-0400
; FORMAT={-:-/ absolute / inch / decimal}
; #@! TF.CreationDate,2025-04-10T23:01:30-04:00
; #@! TF.GenerationSoftware,Kicad,Pcbnew,8.0.6-8.0.6-0~ubuntu24.04.1
; #@! TF.FileFunction,Plated,1,2,PTH
FMAT,2
INCH
; #@! TA.AperFunction,Plated,PTH,ViaDrill
T1C0.0118
; #@! TA.AperFunction,Plated,PTH,ComponentDrill
T2C0.0276
; #@! TA.AperFunction,Plated,PTH,ComponentDrill
T3C0.0295
; #@! TA.AperFunction,Plated,PTH,ComponentDrill
T4C0.0394
; #@! TA.AperFunction,Plated,PTH,ComponentDrill
T5C0.0430
; #@! TA.AperFunction,Plated,PTH,ComponentDrill
T6C0.0433
%
G90
G05
T1
X2.5039Y-1.3543
X2.5591Y-1.0118
X2.5984Y-1.6496
X2.685Y-1.6535
X2.7126Y-1.2756
X2.7441Y-1.0118
X2.7953Y-1.7362
X2.8386Y-1.1614
X2.8819Y-1.0827
X2.9331Y-1.1175
X3.0236Y-1.0899
X3.0354Y-1.689
X3.0394Y-1.3976
X3.0551Y-1.4409
X3.1063Y-1.4724
X3.1142Y-1.7126
X3.1378Y-1.1535
X3.2244Y-1.5354
X3.2992Y-1.6181
X3.4094Y-1.5669
X3.4134Y-1.1509
X3.4961Y-1.3189
X3.5197Y-1.4528
X3.5591Y-1.2559
X3.626Y-1.6339
X3.685Y-1.7874
X3.6929Y-1.4882
X3.6929Y-1.5354
X3.6969Y-1.1457
X3.6969Y-1.3622
X3.6969Y-1.5866
X3.6969Y-1.6378
X3.6969Y-1.689
X3.7165Y-1.063
X3.7362Y-1.2717
X3.811Y-1.4252
X3.811Y-1.7362
X3.8268Y-1.1791
X3.8425Y-0.9803
X3.8661Y-1.3661
X3.8898Y-1.4843
X3.8937Y-1.4331
X3.9213Y-1.3976
X3.9213Y-1.5394
X3.9764Y-1.1102
X3.9764Y-1.1969
X3.9803Y-1.5906
X3.9803Y-1.7378
X4.0157Y-1.7047
X4.0276Y-1.2362
X4.0669Y-1.5906
X4.1063Y-1.4882
X4.1063Y-1.5394
T2
X2.4171Y-1.0827
X2.4919Y-1.0827
X2.6297Y-1.0827
X2.7045Y-1.0827
T3
X4.2008Y-1.1181
X4.2008Y-1.1969
T4
X2.8772Y-1.0039
X2.9772Y-1.0039
X3.0772Y-1.0039
X3.1772Y-1.0039
X3.3307Y-1.0039
X3.4307Y-1.0039
X3.5307Y-1.0039
X3.6307Y-1.0039
X4.2362Y-1.6378
T5
X2.3992Y-1.2071
X2.3992Y-1.8071
X2.4992Y-1.2071
X2.4992Y-1.8071
X2.5992Y-1.2071
X2.5992Y-1.8071
X2.6992Y-1.2071
X2.6992Y-1.8071
X2.7992Y-1.2071
X2.7992Y-1.8071
X2.8992Y-1.2071
X2.8992Y-1.8071
X2.9992Y-1.2071
X2.9992Y-1.8071
X3.0992Y-1.2071
X3.0992Y-1.8071
X3.1992Y-1.2071
X3.1992Y-1.8071
X3.2992Y-1.2071
X3.2992Y-1.8071
X3.3992Y-1.2071
X3.3992Y-1.8071
X3.4992Y-1.2071
X3.4992Y-1.8071
X3.5992Y-1.2071
X3.5992Y-1.8071
T6
X3.8031Y-1.0354
X3.8031Y-1.2913
X3.9803Y-1.0354
X3.9803Y-1.2913
M30
